<svg width="28" height="28" viewBox="0 0 28 28" fill="none" xmlns="http://www.w3.org/2000/svg">
<path fill-rule="evenodd" clip-rule="evenodd" d="M0.597656 14.1125C0.597656 8.71212 0.597656 6.01192 1.88453 4.06704C2.45918 3.19856 3.20295 2.45478 4.07143 1.88013C6.01631 0.593262 8.71651 0.593262 14.1169 0.593262C19.5173 0.593262 22.2175 0.593262 24.1624 1.88013C25.0309 2.45478 25.7746 3.19856 26.3493 4.06704C27.6362 6.01192 27.6362 8.71212 27.6362 14.1125C27.6362 19.5129 27.6362 22.2131 26.3493 24.158C25.7746 25.0265 25.0309 25.7703 24.1624 26.3449C22.2175 27.6318 19.5173 27.6318 14.1169 27.6318C8.71651 27.6318 6.01631 27.6318 4.07143 26.3449C3.20295 25.7703 2.45918 25.0265 1.88453 24.158C0.597656 22.2131 0.597656 19.5129 0.597656 14.1125ZM21.1158 14.1129C21.1158 17.9783 17.9822 21.1119 14.1167 21.1119C10.2512 21.1119 7.11759 17.9783 7.11759 14.1129C7.11759 10.2474 10.2512 7.11378 14.1167 7.11378C17.9822 7.11378 21.1158 10.2474 21.1158 14.1129ZM14.1167 18.744C16.6744 18.744 18.7478 16.6705 18.7478 14.1129C18.7478 11.5552 16.6744 9.48176 14.1167 9.48176C11.559 9.48176 9.48557 11.5552 9.48557 14.1129C9.48557 16.6705 11.559 18.744 14.1167 18.744ZM21.3922 8.40671C22.3005 8.40671 23.0368 7.67041 23.0368 6.76214C23.0368 5.85386 22.3005 5.11756 21.3922 5.11756C20.4839 5.11756 19.7476 5.85386 19.7476 6.76214C19.7476 7.67041 20.4839 8.40671 21.3922 8.40671Z" fill="white"/>
</svg>
