<svg width="25" height="25" viewBox="0 0 25 25" fill="none" xmlns="http://www.w3.org/2000/svg">
<g clip-path="url(#clip0_582_5618)">
<path d="M22.7234 0.142578H2.27187C1.29219 0.142578 0.5 0.916016 0.5 1.87227V22.4082C0.5 23.3645 1.29219 24.1426 2.27187 24.1426H22.7234C23.7031 24.1426 24.5 23.3645 24.5 22.4129V1.87227C24.5 0.916016 23.7031 0.142578 22.7234 0.142578ZM7.62031 20.5941H4.05781V9.13789H7.62031V20.5941ZM5.83906 7.57695C4.69531 7.57695 3.77188 6.65352 3.77188 5.51445C3.77188 4.37539 4.69531 3.45195 5.83906 3.45195C6.97813 3.45195 7.90156 4.37539 7.90156 5.51445C7.90156 6.64883 6.97813 7.57695 5.83906 7.57695ZM20.9516 20.5941H17.3937V15.0254C17.3937 13.6988 17.3703 11.9879 15.5422 11.9879C13.6906 11.9879 13.4094 13.4363 13.4094 14.9316V20.5941H9.85625V9.13789H13.2687V10.7035H13.3156C13.7891 9.80352 14.9516 8.85195 16.6813 8.85195C20.2859 8.85195 20.9516 11.2238 20.9516 14.3082V20.5941Z" fill="#7CC9E6"/>
</g>
<defs>
<clipPath id="clip0_582_5618">
<rect width="24" height="24" fill="white" transform="translate(0.5 0.142578)"/>
</clipPath>
</defs>
</svg>
