<svg width="31" height="34" viewBox="0 0 31 34" fill="none" xmlns="http://www.w3.org/2000/svg">
<g clip-path="url(#clip0_582_5099)">
<path fill-rule="evenodd" clip-rule="evenodd" d="M30.252 16.9839C30.252 26.0966 23.5362 33.4839 15.252 33.4839C6.96768 33.4839 0.251953 26.0966 0.251953 16.9839C0.251953 7.87119 6.96768 0.483887 15.252 0.483887C23.5362 0.483887 30.252 7.87119 30.252 16.9839ZM15.7895 12.6649C14.3305 13.3324 11.4146 14.714 7.04182 16.8097C6.33174 17.1203 5.95977 17.4242 5.92591 17.7213C5.86869 18.2234 6.44034 18.4212 7.21879 18.6904C7.32468 18.7271 7.4344 18.765 7.54688 18.8052C8.31275 19.0791 9.34299 19.3995 9.87856 19.4122C10.3644 19.4237 10.9066 19.2034 11.5053 18.7512C15.5909 15.7175 17.6999 14.1841 17.8323 14.1511C17.9258 14.1277 18.0552 14.0984 18.1429 14.1842C18.2306 14.2699 18.222 14.4323 18.2127 14.4759C18.1561 14.7415 15.9121 17.0363 14.7509 18.2238C14.3888 18.5941 14.132 18.8567 14.0796 18.9166C13.962 19.051 13.8421 19.1781 13.7269 19.3002C13.0154 20.0547 12.4818 20.6205 13.7565 21.5445C14.369 21.9885 14.8591 22.3557 15.3481 22.722C15.8822 23.122 16.4148 23.521 17.104 24.0179C17.2796 24.1445 17.4472 24.276 17.6106 24.4041C18.232 24.8915 18.7904 25.3293 19.4802 25.2595C19.881 25.2189 20.295 24.8044 20.5053 23.5679C21.0022 20.6457 21.979 14.3143 22.2047 11.7052C22.2245 11.4766 22.1996 11.1841 22.1796 11.0557C22.1597 10.9273 22.1179 10.7443 21.9662 10.6088C21.7864 10.4484 21.509 10.4146 21.3849 10.417C20.8207 10.4279 19.9551 10.759 15.7895 12.6649Z" fill="white"/>
</g>
<defs>
<clipPath id="clip0_582_5099">
<rect width="30" height="33" fill="white" transform="translate(0.251953 0.483887)"/>
</clipPath>
</defs>
</svg>
