<svg width="28" height="23" viewBox="0 0 28 23" fill="none" xmlns="http://www.w3.org/2000/svg">
<path d="M18.3427 0.0483705V0.043457H19.6105L20.0737 0.136813C20.3826 0.197421 20.6629 0.276847 20.9149 0.375117C21.1668 0.473386 21.4106 0.588042 21.6463 0.71906C21.882 0.850078 22.0957 0.983577 22.2875 1.11951C22.4777 1.25382 22.6484 1.39631 22.7995 1.54698C22.949 1.6993 23.1823 1.73861 23.4993 1.6649C23.8162 1.5912 24.1575 1.48883 24.5233 1.35781C24.889 1.22679 25.2506 1.07939 25.6082 0.915599C25.9658 0.751808 26.1836 0.647815 26.2616 0.603593C26.338 0.557751 26.3787 0.533183 26.3835 0.529891L26.3884 0.522521L26.4128 0.510237L26.4372 0.497954L26.4615 0.48567L26.4859 0.473386L26.4908 0.466016L26.4981 0.461102L26.5055 0.456189L26.5103 0.448819L26.5347 0.441449L26.5591 0.436535L26.5542 0.473386L26.5469 0.510237L26.5347 0.547088L26.5225 0.583939L26.5103 0.608507L26.4981 0.633074L26.4859 0.669925C26.4778 0.694493 26.4697 0.727241 26.4615 0.768195C26.4534 0.809149 26.3762 0.972915 26.2299 1.25954C26.0836 1.54617 25.9008 1.83688 25.6814 2.13168C25.4619 2.42649 25.2653 2.64922 25.0914 2.79992C24.9158 2.95223 24.7996 3.05869 24.7427 3.11929C24.6858 3.18152 24.6167 3.23884 24.5354 3.29126L24.4135 3.37234L24.3892 3.38462L24.3648 3.3969L24.3599 3.40427L24.3526 3.40919L24.3453 3.4141L24.3404 3.42147L24.316 3.43376L24.2916 3.44604L24.2868 3.45341L24.2794 3.45832L24.2721 3.46324L24.2673 3.47061L24.2624 3.47798L24.2551 3.48289L24.2477 3.4878L24.2429 3.49517H24.3648L25.0474 3.34777C25.5026 3.2495 25.9374 3.13077 26.3518 2.99154L27.0101 2.77044L27.0833 2.74587L27.1198 2.73358L27.1442 2.7213L27.1686 2.70902L27.193 2.69673L27.2174 2.68445L27.2661 2.67708L27.3149 2.67217V2.7213L27.3027 2.72621L27.2905 2.73358L27.2856 2.74096L27.2783 2.74587L27.271 2.75078L27.2661 2.75815L27.2613 2.76552L27.2539 2.77044L27.2466 2.77535L27.2417 2.78272L27.2369 2.79009L27.2295 2.795L27.2174 2.81957L27.2052 2.84414L27.1978 2.84905C27.1946 2.85397 27.0914 2.99316 26.8882 3.2667C26.685 3.54185 26.5753 3.68105 26.5591 3.68434C26.5428 3.68926 26.5201 3.71382 26.4908 3.75804C26.4632 3.80389 26.2909 3.98652 25.9739 4.3059C25.657 4.62527 25.3466 4.90942 25.0426 5.15839C24.737 5.40897 24.5826 5.71688 24.5794 6.08212C24.5745 6.44572 24.5558 6.85683 24.5233 7.3154C24.4908 7.774 24.4298 8.26943 24.3404 8.80173C24.251 9.33403 24.1128 9.93593 23.9259 10.6074C23.739 11.2789 23.5114 11.9341 23.2433 12.5728C22.9751 13.2116 22.6947 13.7848 22.4021 14.2925C22.1095 14.8003 21.8413 15.2302 21.5975 15.5823C21.3537 15.9344 21.1059 16.2661 20.8539 16.5773C20.602 16.8885 20.2834 17.239 19.8982 17.6288C19.5114 18.017 19.3001 18.2299 19.2643 18.2675C19.2269 18.3036 19.0676 18.4379 18.7864 18.6704C18.5069 18.9046 18.2061 19.1388 17.8843 19.3731C17.5641 19.6056 17.2699 19.7997 17.0017 19.9553C16.7335 20.1109 16.4101 20.2886 16.0314 20.4884C15.6543 20.6899 15.2463 20.8766 14.8074 21.0486C14.3686 21.2205 13.9053 21.3802 13.4177 21.5276C12.9301 21.675 12.4587 21.7897 12.0036 21.8716C11.5485 21.9535 11.0325 22.0231 10.4554 22.0804L9.5899 22.1664V22.1787H8.00514V22.1664L7.7979 22.1541C7.65976 22.1459 7.54597 22.1377 7.45657 22.1295C7.36719 22.1213 7.0299 22.0763 6.44476 21.9944C5.85961 21.9125 5.40044 21.8306 5.06723 21.7487C4.73404 21.6669 4.23828 21.5112 3.57999 21.282C2.9217 21.0527 2.3585 20.8209 1.89039 20.5867C1.42391 20.3541 1.13134 20.2067 1.01267 20.1445C0.895644 20.0839 0.763987 20.0086 0.617701 19.9185L0.398272 19.7833L0.39342 19.776L0.386082 19.7711L0.378767 19.7661L0.373891 19.7588L0.34951 19.7465L0.325129 19.7342L0.320277 19.7268L0.312939 19.7219L0.305624 19.717L0.300748 19.7096L0.295896 19.7023L0.288558 19.6974H0.276367V19.6482L0.300748 19.6531L0.325129 19.6605L0.434844 19.6728C0.507987 19.681 0.707106 19.6933 1.03218 19.7096C1.35727 19.726 1.70265 19.726 2.06837 19.7096C2.43408 19.6933 2.80794 19.6564 3.18989 19.5991C3.57187 19.5418 4.02292 19.4435 4.54304 19.3043C5.06318 19.1651 5.54105 18.9996 5.97667 18.808C6.41065 18.6148 6.71946 18.4706 6.90314 18.3756C7.08517 18.2823 7.36311 18.1087 7.73695 17.8548L8.29771 17.474L8.30259 17.4666L8.3099 17.4617L8.31724 17.4568L8.32209 17.4494L8.32697 17.4421L8.33428 17.4372L8.34162 17.4322L8.34647 17.4249L8.37085 17.4175L8.39523 17.4126L8.40011 17.388L8.40742 17.3635L8.41476 17.3585L8.41961 17.3512L8.22457 17.3389C8.09454 17.3307 7.96857 17.3225 7.84666 17.3143C7.72476 17.3061 7.53378 17.2693 7.27371 17.2038C7.01366 17.1383 6.73328 17.04 6.43257 16.909C6.13187 16.7779 5.8393 16.6223 5.55485 16.4422C5.27042 16.262 5.06479 16.1121 4.93801 15.9926C4.81286 15.8747 4.65032 15.7076 4.45039 15.4914C4.2521 15.2736 4.0798 15.05 3.93351 14.8207C3.78723 14.5914 3.64745 14.3269 3.51419 14.0272L3.3118 13.5801L3.29961 13.5432L3.28742 13.5064L3.2801 13.4818L3.27523 13.4572L3.3118 13.4622L3.34837 13.4695L3.61656 13.5064C3.79537 13.5309 4.07575 13.5391 4.45771 13.5309C4.83968 13.5228 5.1038 13.5064 5.25009 13.4818C5.39637 13.4572 5.48578 13.4409 5.51828 13.4327L5.56704 13.4204L5.62799 13.4081L5.68895 13.3958L5.69382 13.3885L5.70114 13.3835L5.70847 13.3786L5.71333 13.3713L5.66456 13.359L5.6158 13.3467L5.56704 13.3344L5.51828 13.3221L5.46952 13.3098C5.43702 13.3017 5.38014 13.2853 5.29885 13.2607C5.21759 13.2361 4.99816 13.1461 4.64056 12.9905C4.28299 12.8349 3.99854 12.6834 3.78723 12.536C3.57539 12.3881 3.37341 12.2265 3.18258 12.052C2.99241 11.8751 2.78356 11.6474 2.55599 11.369C2.32844 11.0906 2.12527 10.7671 1.94646 10.3986C1.76768 10.0301 1.63358 9.67797 1.54418 9.34221C1.45513 9.00842 1.39638 8.66717 1.36866 8.32266L1.32475 7.80675L1.34913 7.81166L1.37351 7.81903L1.39789 7.83132L1.42227 7.8436L1.44665 7.85588L1.47104 7.86817L1.84894 8.04014C2.10089 8.15479 2.41377 8.25306 2.78761 8.33495C3.16147 8.41683 3.38494 8.46189 3.45809 8.47007L3.5678 8.48235H3.78723L3.78238 8.47498L3.77504 8.47007L3.76772 8.46515L3.76285 8.45778L3.758 8.45041L3.75066 8.4455L3.74334 8.44059L3.73847 8.43322L3.71409 8.42093L3.6897 8.40865L3.68485 8.40128L3.67751 8.39637L3.6702 8.39145L3.66532 8.38408L3.64094 8.3718L3.61656 8.35952L3.61171 8.35215C3.60683 8.34885 3.53693 8.29645 3.40201 8.19491C3.26872 8.09173 3.12894 7.95826 2.98266 7.79447C2.83637 7.63067 2.69008 7.4587 2.5438 7.27855C2.39724 7.09798 2.26671 6.9048 2.1537 6.70122C2.03994 6.4965 1.91965 6.23606 1.79286 5.91997C1.66772 5.60551 1.57263 5.28859 1.50761 4.96922C1.44261 4.64984 1.40604 4.33457 1.39789 4.02337C1.38977 3.71218 1.39789 3.44604 1.42227 3.22493C1.44665 3.00383 1.49542 2.75405 1.56856 2.47563C1.6417 2.19721 1.74737 1.9024 1.88551 1.5912L2.09275 1.12442L2.10494 1.08757L2.11713 1.05072L2.12447 1.04581L2.12932 1.03844L2.1342 1.03107L2.14151 1.02615L2.14885 1.03107L2.1537 1.03844L2.15858 1.04581L2.16589 1.05072L2.17323 1.05563L2.17808 1.063L2.18296 1.07037L2.19027 1.07529L2.20246 1.09985L2.21466 1.12442L2.22199 1.12934L2.22685 1.13671L2.55599 1.50522C2.77542 1.75089 3.03549 2.02523 3.33618 2.32822C3.6369 2.63121 3.80349 2.78844 3.83599 2.79992C3.86851 2.81301 3.90913 2.85067 3.9579 2.91293C4.00666 2.97353 4.16921 3.11848 4.44552 3.34777C4.72185 3.57706 5.08349 3.84322 5.53047 4.14621C5.97747 4.4492 6.47321 4.74811 7.01771 5.04292C7.56223 5.33773 8.14738 5.60387 8.77314 5.84136C9.39893 6.07885 9.83778 6.23444 10.0897 6.30814C10.3417 6.38184 10.7724 6.47601 11.3819 6.59066C11.9914 6.70532 12.4506 6.77902 12.7594 6.81177C13.0683 6.84452 13.2796 6.86336 13.3933 6.86827L13.564 6.87319L13.5592 6.83634L13.5518 6.79949L13.503 6.49239C13.4705 6.28767 13.4543 6.00105 13.4543 5.63254C13.4543 5.26403 13.4827 4.92418 13.5396 4.61299C13.5965 4.30179 13.6819 3.98652 13.7956 3.66715C13.9094 3.34777 14.0208 3.09143 14.1296 2.89819C14.2402 2.70656 14.3848 2.48791 14.5636 2.24224C14.7424 1.99656 14.9741 1.74271 15.2585 1.48065C15.5429 1.21859 15.868 0.985198 16.2337 0.780478C16.5994 0.575758 16.9367 0.420149 17.2455 0.313698C17.5544 0.207248 17.8144 0.137624 18.0257 0.104875C18.237 0.0721272 18.3427 0.053284 18.3427 0.0483705Z" fill="white"/>
</svg>
