<svg width="24" height="25" viewBox="0 0 24 25" fill="none" xmlns="http://www.w3.org/2000/svg">
<g clip-path="url(#clip0_400_109)">
<path d="M7.55016 22.646C16.6045 22.646 21.5583 15.1427 21.5583 8.63786C21.5583 8.42692 21.5536 8.21129 21.5442 8.00036C22.5079 7.30346 23.3395 6.44025 24 5.45129C23.1025 5.8506 22.1496 6.11138 21.1739 6.22473C22.2013 5.6089 22.9705 4.64147 23.3391 3.50176C22.3726 4.07455 21.3156 4.47861 20.2134 4.69661C19.4708 3.90756 18.489 3.38511 17.4197 3.21005C16.3504 3.03498 15.2532 3.21705 14.2977 3.72809C13.3423 4.23914 12.5818 5.0507 12.1338 6.03731C11.6859 7.02391 11.5754 8.13061 11.8195 9.18629C9.86249 9.08809 7.94794 8.5797 6.19998 7.69409C4.45203 6.80849 2.90969 5.56543 1.67297 4.04551C1.0444 5.12924 0.852057 6.41164 1.13503 7.63209C1.418 8.85253 2.15506 9.91944 3.19641 10.616C2.41463 10.5912 1.64998 10.3807 0.965625 10.0019V10.0629C0.964925 11.2001 1.3581 12.3026 2.07831 13.1828C2.79852 14.0629 3.80132 14.6666 4.91625 14.891C4.19206 15.0891 3.43198 15.118 2.69484 14.9754C3.00945 15.9534 3.62157 16.8089 4.44577 17.4223C5.26997 18.0358 6.26512 18.3766 7.29234 18.3972C5.54842 19.7671 3.39417 20.5101 1.17656 20.5066C0.783287 20.506 0.390399 20.4819 0 20.4344C2.25286 21.8797 4.87353 22.6474 7.55016 22.646Z" fill="#7CC9E6"/>
</g>
<defs>
<clipPath id="clip0_400_109">
<rect width="24" height="24" fill="white" transform="translate(0 0.895996)"/>
</clipPath>
</defs>
</svg>
