<svg width="28" height="20" viewBox="0 0 28 20" fill="none" xmlns="http://www.w3.org/2000/svg">
<path d="M14.801 19.3602L9.28021 19.2599C7.49268 19.2249 5.70071 19.2947 3.94823 18.9323C1.28231 18.3908 1.09345 15.7359 0.895824 13.509C0.623516 10.3782 0.728935 7.19055 1.24281 4.08588C1.53292 2.34383 2.67459 1.30433 4.44014 1.19122C10.4002 0.780698 16.3998 0.829349 22.3467 1.02087C22.9747 1.03843 23.6071 1.13439 24.2264 1.24362C27.2834 1.77637 27.3579 4.78495 27.5561 7.31761C27.7537 9.8764 27.6703 12.4483 27.2926 14.9897C26.9895 17.0939 26.4097 18.8585 23.9629 19.0288C20.8971 19.2515 17.9017 19.4309 14.8273 19.3738C14.8275 19.3602 14.8098 19.3602 14.801 19.3602ZM11.5553 14.033C13.8656 12.7142 16.1319 11.4174 18.4289 10.1075C16.1143 8.78866 13.8524 7.49184 11.5553 6.18188V14.033Z" fill="white"/>
</svg>
