<svg width="155" height="54" viewBox="0 0 155 54" fill="none" xmlns="http://www.w3.org/2000/svg">
<g clip-path="url(#clip0_637_55)">
<path d="M149.385 32.4556L153.646 35.4417C152.263 37.5831 148.955 41.2568 143.235 41.2568C136.132 41.2568 130.842 35.481 130.842 28.1335C130.842 20.3146 136.188 15.0103 142.637 15.0103C149.123 15.0103 152.301 20.4324 153.329 23.3596L153.889 24.8527L137.178 32.1216C138.45 34.7541 140.431 36.09 143.235 36.09C146.039 36.09 147.983 34.6362 149.385 32.4556ZM136.281 27.721L147.441 22.8489C146.824 21.2183 144.992 20.0592 142.805 20.0592C140.02 20.0592 136.15 22.6524 136.281 27.721Z" fill="#DFF3F9"/>
<path d="M122.786 1.63184H128.17V40.0587H122.786V1.63184Z" fill="#DFF3F9"/>
<path d="M114.3 16.0319H119.496V39.3709C119.496 49.0562 114.057 53.0443 107.627 53.0443C101.571 53.0443 97.9255 48.7615 96.561 45.2843L101.328 43.2018C102.187 45.3432 104.262 47.8775 107.627 47.8775C111.758 47.8775 114.3 45.186 114.3 40.1568V38.2708H114.113C112.879 39.8424 110.524 41.2569 107.533 41.2569C101.29 41.2569 95.5703 35.54 95.5703 28.1729C95.5703 20.7665 101.29 14.9907 107.533 14.9907C110.505 14.9907 112.879 16.3856 114.113 17.9179H114.3V16.0319ZM114.674 28.1729C114.674 23.5366 111.739 20.1575 108.001 20.1575C104.225 20.1575 101.047 23.5366 101.047 28.1729C101.047 32.7504 104.225 36.0705 108.001 36.0705C111.739 36.0901 114.674 32.7504 114.674 28.1729Z" fill="#DFF3F9"/>
<path d="M66.0178 28.0746C66.0178 35.6381 60.4101 41.1978 53.5314 41.1978C46.6526 41.1978 41.0449 35.6185 41.0449 28.0746C41.0449 20.4717 46.6526 14.9316 53.5314 14.9316C60.4101 14.9316 66.0178 20.4717 66.0178 28.0746ZM60.5597 28.0746C60.5597 23.3596 57.3072 20.1181 53.5314 20.1181C49.7555 20.1181 46.5031 23.3596 46.5031 28.0746C46.5031 32.7502 49.7555 36.031 53.5314 36.031C57.3072 36.031 60.5597 32.7502 60.5597 28.0746Z" fill="#DFF3F9"/>
<path d="M93.2893 28.1335C93.2893 35.6971 87.6816 41.2568 80.8028 41.2568C73.9241 41.2568 68.3164 35.6971 68.3164 28.1335C68.3164 20.5307 73.9241 15.0103 80.8028 15.0103C87.6816 15.0103 93.2893 20.511 93.2893 28.1335ZM87.8125 28.1335C87.8125 23.4186 84.56 20.1771 80.7842 20.1771C77.0083 20.1771 73.7559 23.4186 73.7559 28.1335C73.7559 32.8092 77.0083 36.09 80.7842 36.09C84.5787 36.09 87.8125 32.7895 87.8125 28.1335Z" fill="#DFF3F9"/>
<path d="M20.5204 35.5007C12.6884 35.5007 6.5573 28.8605 6.5573 20.6289C6.5573 12.3974 12.6884 5.75721 20.5204 5.75721C24.7449 5.75721 27.8291 7.50567 30.1096 9.74527L33.8667 5.7965C30.689 2.59426 26.4459 0.158203 20.5204 0.158203C9.79107 0.158203 0.762695 9.35236 0.762695 20.6289C0.762695 31.9055 9.79107 41.0997 20.5204 41.0997C26.315 41.0997 30.689 39.0958 34.1097 35.3632C37.6239 31.6698 38.708 26.4833 38.708 22.2792C38.708 20.9629 38.5585 19.6074 38.3903 18.6054H20.5204V24.0669H33.2499C32.876 27.4853 31.848 29.8231 30.3339 31.4144C28.502 33.3593 25.6047 35.5007 20.5204 35.5007Z" fill="#DFF3F9"/>
</g>
<defs>
<clipPath id="clip0_637_55">
<rect width="153.631" height="52.9811" fill="white" transform="translate(0.539062 0.0766602)"/>
</clipPath>
</defs>
</svg>
