<svg width="155" height="35" viewBox="0 0 155 35" fill="none" xmlns="http://www.w3.org/2000/svg">
<g clip-path="url(#clip0_637_71)">
<path d="M55.2031 20.1473L54.2874 22.8327H54.2111C54.0585 22.2272 53.7787 21.3058 53.3209 20.2L48.4118 7.43124H43.6045V27.7823H46.7839V15.2241C46.7839 14.4343 46.7839 13.5392 46.7585 12.4334C46.7331 11.8806 46.6822 11.4593 46.6568 11.1434H46.7331C46.8857 11.9332 47.0637 12.5124 47.1909 12.881L53.092 27.7296H55.3303L61.1805 12.7494C61.3076 12.4071 61.4348 11.7226 61.562 11.1434H61.6383C61.562 12.6441 61.5111 13.9868 61.4857 14.8029V27.7033H64.8686V7.37859H60.2394L55.2031 20.1473ZM68.0735 13.1179H71.3801V27.7033H68.0735V13.1179ZM69.7523 6.95735C69.1927 6.95735 68.7348 7.16797 68.3533 7.53655C67.9718 7.90513 67.7683 8.37903 67.7683 8.95823C67.7683 9.5111 67.9718 9.98499 68.3533 10.3536C68.7348 10.7222 69.1927 10.9065 69.7523 10.9065C70.3118 10.9065 70.7951 10.6958 71.1512 10.3536C71.5327 9.98499 71.7362 9.5111 71.7362 8.95823C71.7362 8.40535 71.5327 7.93146 71.1512 7.53655C70.8206 7.16797 70.3373 6.95735 69.7523 6.95735ZM83.1059 12.9863C82.4955 12.8547 81.8596 12.7757 81.2491 12.7757C79.7484 12.7757 78.3749 13.1179 77.2303 13.8025C76.0857 14.487 75.17 15.4348 74.585 16.6195C73.9746 17.8305 73.6693 19.2259 73.6693 20.8319C73.6693 22.2272 73.9746 23.4646 74.5596 24.5967C75.1446 25.7024 75.9585 26.5975 77.0523 27.2031C78.0951 27.8086 79.316 28.1245 80.6896 28.1245C82.2666 28.1245 83.6146 27.7823 84.6829 27.1504L84.7084 27.1241V23.9648L84.5812 24.0701C84.0979 24.4387 83.5383 24.7546 82.9788 24.9389C82.3937 25.1495 81.8596 25.2549 81.4018 25.2549C80.0791 25.2549 79.0362 24.8599 78.2986 23.9911C77.5355 23.1487 77.154 21.9903 77.154 20.5423C77.154 19.0416 77.5355 17.8569 78.3241 16.9881C79.1126 16.1193 80.1554 15.6717 81.4272 15.6717C82.4955 15.6717 83.5892 16.0403 84.5812 16.7774L84.7084 16.8828V13.5392L84.6829 13.5129C84.2505 13.3286 83.7673 13.1179 83.1059 12.9863ZM94.0178 12.881C93.2039 12.881 92.4408 13.1443 91.7795 13.6971C91.2199 14.171 90.8383 14.8556 90.5077 15.6717H90.4823V13.1179H87.1756V27.7033H90.4823V20.2527C90.4823 18.9889 90.7366 17.9359 91.2962 17.1724C91.8558 16.3825 92.568 15.9876 93.4328 15.9876C93.738 15.9876 94.0432 16.0666 94.4248 16.1193C94.7809 16.2246 95.0352 16.3299 95.2133 16.4615L95.3404 16.5668V13.1443L95.2641 13.1179C95.0352 12.96 94.5774 12.881 94.0178 12.881ZM103.022 12.802C100.707 12.802 98.8506 13.5129 97.5533 14.9082C96.2307 16.3036 95.5948 18.2255 95.5948 20.6476C95.5948 22.9117 96.2561 24.7546 97.5279 26.0973C98.7997 27.4137 100.529 28.0982 102.691 28.0982C104.955 28.0982 106.761 27.3874 108.058 25.9657C109.381 24.544 110.017 22.6484 110.017 20.3053C110.017 17.9885 109.406 16.1456 108.16 14.8029C106.965 13.4602 105.209 12.802 103.022 12.802ZM105.667 24.0175C105.057 24.8336 104.09 25.2285 102.895 25.2285C101.699 25.2285 100.733 24.8336 100.046 23.9648C99.3593 23.1487 99.0286 21.9639 99.0286 20.4633C99.0286 18.91 99.3847 17.7252 100.046 16.8828C100.733 16.0403 101.674 15.619 102.869 15.619C104.039 15.619 104.955 16.014 105.616 16.8301C106.278 17.6462 106.634 18.831 106.634 20.3843C106.583 21.9639 106.303 23.2013 105.667 24.0175ZM117.393 19.1732C116.35 18.7257 115.689 18.3834 115.384 18.0938C115.129 17.8305 115.002 17.462 115.002 16.9881C115.002 16.5932 115.155 16.1982 115.536 15.935C115.918 15.6717 116.35 15.5401 116.986 15.5401C117.546 15.5401 118.131 15.6454 118.69 15.8033C119.25 15.9613 119.759 16.1982 120.166 16.5142L120.293 16.6195V13.4075L120.216 13.3812C119.835 13.2233 119.326 13.0653 118.716 12.9337C118.105 12.8283 117.546 12.7757 117.088 12.7757C115.511 12.7757 114.214 13.1706 113.196 14.0394C112.179 14.8556 111.696 15.9613 111.696 17.2513C111.696 17.9359 111.797 18.5414 112.026 19.0416C112.255 19.5418 112.586 20.0157 113.044 20.4106C113.501 20.7792 114.163 21.2004 115.078 21.5954C115.842 21.9376 116.427 22.2009 116.783 22.4115C117.139 22.6221 117.368 22.8591 117.546 23.0434C117.673 23.254 117.749 23.5172 117.749 23.8595C117.749 24.8336 117.037 25.3075 115.587 25.3075C115.028 25.3075 114.443 25.2022 113.756 24.9653C113.069 24.7283 112.433 24.386 111.899 23.9911L111.772 23.8858V27.2294L111.848 27.2557C112.331 27.4927 112.916 27.6506 113.629 27.8349C114.341 27.9666 114.977 28.0719 115.536 28.0719C117.24 28.0719 118.639 27.677 119.631 26.8082C120.649 25.9657 121.183 24.8863 121.183 23.4909C121.183 22.5168 120.929 21.648 120.369 20.9898C119.631 20.358 118.716 19.6998 117.393 19.1732ZM129.907 12.802C127.593 12.802 125.736 13.5129 124.439 14.9082C123.142 16.3036 122.48 18.2255 122.48 20.6476C122.48 22.9117 123.142 24.7546 124.413 26.0973C125.685 27.4137 127.415 28.0982 129.577 28.0982C131.84 28.0982 133.646 27.3874 134.944 25.9657C136.266 24.544 136.902 22.6484 136.902 20.3053C136.902 17.9885 136.292 16.1456 135.045 14.8029C133.85 13.4602 132.095 12.802 129.907 12.802ZM132.527 24.0175C131.917 24.8336 130.95 25.2285 129.755 25.2285C128.534 25.2285 127.593 24.8336 126.906 23.9648C126.219 23.1487 125.889 21.9639 125.889 20.4633C125.889 18.91 126.245 17.7252 126.906 16.8828C127.593 16.0403 128.534 15.619 129.729 15.619C130.874 15.619 131.815 16.014 132.476 16.8301C133.138 17.6462 133.494 18.831 133.494 20.3843C133.494 21.9639 133.163 23.2013 132.527 24.0175ZM154.58 15.935V13.1179H151.248V8.80026L151.146 8.82659L147.992 9.8007L147.916 9.82703V13.1179H142.93V11.275C142.93 10.4326 143.134 9.77438 143.49 9.35314C143.846 8.9319 144.38 8.72128 145.042 8.72128C145.499 8.72128 145.983 8.82659 146.517 9.06354L146.644 9.14252V6.16753L146.568 6.1412C146.11 5.98324 145.499 5.87793 144.711 5.87793C143.719 5.87793 142.854 6.11488 142.066 6.50979C141.277 6.95735 140.692 7.56288 140.26 8.37903C139.827 9.16885 139.598 10.064 139.598 11.0907V13.1179H137.284V15.9086H139.598V27.7033H142.93V15.935H147.916V23.4383C147.916 26.5186 149.315 28.0719 152.113 28.0719C152.57 28.0719 153.054 27.9929 153.512 27.9139C153.995 27.8086 154.351 27.677 154.554 27.5717L154.58 27.5453V24.7283L154.453 24.8336C154.249 24.9653 154.071 25.0706 153.766 25.1495C153.512 25.2285 153.283 25.2549 153.105 25.2549C152.443 25.2549 151.985 25.0969 151.655 24.702C151.35 24.3334 151.197 23.7279 151.197 22.8327V15.935H154.58Z" fill="#DFF3F9"/>
<path d="M0.974609 0.585938H16.5666V16.7246H0.974609V0.585938Z" fill="#DFF3F9"/>
<path d="M18.1943 0.585938H33.7863V16.7246H18.1943V0.585938Z" fill="#DFF3F9"/>
<path d="M0.974609 18.4097H16.5666V34.5483H0.974609V18.4097Z" fill="#DFF3F9"/>
<path d="M18.1943 18.4097H33.7863V34.5483H18.1943V18.4097Z" fill="#DFF3F9"/>
</g>
<defs>
<clipPath id="clip0_637_71">
<rect width="153.631" height="33.9623" fill="white" transform="translate(0.974609 0.585938)"/>
</clipPath>
</defs>
</svg>
