<svg width="201" height="60" viewBox="0 0 201 60" fill="none" xmlns="http://www.w3.org/2000/svg">
<mask id="mask0_236_11039" style="mask-type:alpha" maskUnits="userSpaceOnUse" x="0" y="0" width="60" height="60">
<path fill-rule="evenodd" clip-rule="evenodd" d="M30.1878 59.1432C46.5839 59.1432 59.8756 45.9036 59.8756 29.5716C59.8756 13.2397 46.5839 0 30.1878 0C13.7917 0 0.5 13.2397 0.5 29.5716C0.5 45.9036 13.7917 59.1432 30.1878 59.1432ZM45.7343 29.5329C45.7343 38.0518 38.8284 44.9577 30.3095 44.9577C21.7906 44.9577 14.8847 38.0518 14.8847 29.5329C14.8847 21.014 21.7906 14.1081 30.3095 14.1081C38.8284 14.1081 45.7343 21.014 45.7343 29.5329Z" fill="#D9D9D9"/>
</mask>
<g mask="url(#mask0_236_11039)">
<path d="M30.1878 59.1432C46.5839 59.1432 59.8756 45.9036 59.8756 29.5716C59.8756 13.2397 46.5839 0 30.1878 0C13.7917 0 0.5 13.2397 0.5 29.5716C0.5 45.9036 13.7917 59.1432 30.1878 59.1432Z" fill="url(#paint0_linear_236_11039)"/>
<path d="M44.1572 28.7942C44.3702 29.1123 47.0646 32.9768 51.9941 32.9851L44.1572 28.7942Z" fill="url(#paint1_radial_236_11039)"/>
<path style="mix-blend-mode:multiply" d="M57.5436 20.0832C54.7081 19.5299 51.5103 30.9768 47.1894 30.5065C46.235 30.4014 45.513 29.7458 45.0483 29.2036C45.1294 29.8663 45.1424 30.5355 45.087 31.2009C44.957 32.7887 44.5586 33.1732 44.7772 33.8786C45.04 34.7085 45.9113 35.1152 47.5185 35.815C48.8187 36.3683 49.8339 36.8192 51.3222 36.9907C54.0885 37.3116 56.8548 36.5204 58.2379 35.2673C58.7912 34.7749 59.4081 33.9423 59.5823 33.2783C59.6498 33.0046 59.7033 32.7276 59.7428 32.4485C59.7428 32.3821 59.7787 32.1718 59.8036 31.7071C59.8341 31.1926 59.8341 30.7998 59.8341 30.7085C59.8341 30.1552 59.8341 28.5923 59.8202 28.1303C59.8036 27.7707 59.527 20.4621 57.5436 20.0832Z" fill="url(#paint2_radial_236_11039)"/>
<path d="M45.0589 30.0944C47.8556 33.3447 51.828 34.5923 54.8322 33.3365C58.3094 31.8897 59.1918 27.3032 59.2582 26.974C59.3795 26.3173 59.4315 25.6498 59.4131 24.9823C59.3329 19.6046 56.2319 15.1204 54.8294 13.1177C53.3168 10.9706 51.544 9.01933 49.5513 7.30845C47.7311 5.76763 42.6079 1.5435 34.6134 0.392728C29.3548 -0.32648 23.9996 0.399338 19.1222 2.49234C13.8672 4.63446 9.34951 8.26013 6.1206 12.9268C4.22528 15.6309 2.78703 18.6279 1.86328 21.7983" fill="url(#paint3_linear_236_11039)"/>
</g>
<path d="M68.4854 40.4099V8.16431H76.8675L92.3488 27.8795V8.16431H100.688V40.4099H92.3488L76.8675 20.6948V40.4099H68.4854Z" fill="#026AA1"/>
<path d="M125.798 15.2635H115.833V20.652H125.242V27.7512H115.833V33.3107H125.798V40.4099H107.451V8.16431H125.798V15.2635Z" fill="#026AA1"/>
<path d="M140.223 33.9095H142.062C144.172 33.9095 145.683 33.6386 146.595 33.0969C147.508 32.5552 147.964 31.6856 147.964 30.4882C147.964 29.2907 147.508 28.4212 146.595 27.8795C145.683 27.3378 144.172 27.0669 142.062 27.0669H140.223V33.9095ZM140.223 20.8231H141.763C144.386 20.8231 145.697 19.7824 145.697 17.7011C145.697 15.6199 144.386 14.5792 141.763 14.5792H140.223V20.8231ZM131.841 8.16431H144.329C147.294 8.16431 149.546 8.87707 151.086 10.3026C152.625 11.7281 153.395 13.7809 153.395 16.4609C153.395 18.086 153.096 19.4403 152.497 20.5237C151.927 21.5786 151.043 22.4767 149.845 23.218C151.043 23.446 152.055 23.8024 152.882 24.2871C153.737 24.7433 154.421 25.3135 154.935 25.9977C155.476 26.682 155.861 27.4518 156.089 28.3071C156.317 29.1624 156.431 30.0748 156.431 31.0441C156.431 32.5552 156.161 33.8952 155.619 35.0642C155.106 36.2331 154.364 37.2167 153.395 38.015C152.454 38.8133 151.299 39.412 149.931 39.8112C148.562 40.2103 147.023 40.4099 145.312 40.4099H131.841V8.16431Z" fill="#026AA1"/>
<path d="M169.834 8.16431V40.4099H161.451V8.16431H169.834Z" fill="#026AA1"/>
<path d="M188.801 15.2635V40.4099H180.419V15.2635H173.533V8.16431H195.686V15.2635H188.801Z" fill="#026AA1"/>
<path d="M130.739 42.8899L133.687 51.2485H133.803L136.751 42.8899H138.012L134.366 52.8194H133.124L129.479 42.8899H130.739Z" fill="#026AA1"/>
<path d="M139.558 52.8194V42.8899H145.551V43.9565H140.761V47.3116H145.241V48.3783H140.761V51.7527H145.628V52.8194H139.558Z" fill="#026AA1"/>
<path d="M155.592 42.8899V52.8194H154.428L149.017 45.0232H148.92V52.8194H147.718V42.8899H148.882L154.312 50.7055H154.409V42.8899H155.592Z" fill="#026AA1"/>
<path d="M157.455 43.9565V42.8899H164.902V43.9565H161.78V52.8194H160.577V43.9565H157.455Z" fill="#026AA1"/>
<path d="M173.274 42.8899H174.476V49.4643C174.476 50.1431 174.316 50.7491 173.996 51.2824C173.679 51.8125 173.232 52.2311 172.653 52.5382C172.075 52.842 171.396 52.9939 170.617 52.9939C169.838 52.9939 169.159 52.842 168.581 52.5382C168.002 52.2311 167.553 51.8125 167.233 51.2824C166.916 50.7491 166.758 50.1431 166.758 49.4643V42.8899H167.96V49.3673C167.96 49.8522 168.067 50.2837 168.28 50.6618C168.493 51.0368 168.797 51.3325 169.191 51.5491C169.589 51.7624 170.064 51.8691 170.617 51.8691C171.17 51.8691 171.645 51.7624 172.042 51.5491C172.44 51.3325 172.744 51.0368 172.954 50.6618C173.167 50.2837 173.274 49.8522 173.274 49.3673V42.8899Z" fill="#026AA1"/>
<path d="M176.877 52.8194V42.8899H180.232C181.008 42.8899 181.645 43.0224 182.143 43.2875C182.64 43.5493 183.009 43.9097 183.248 44.3687C183.487 44.8276 183.607 45.3496 183.607 45.9347C183.607 46.5197 183.487 47.0385 183.248 47.491C183.009 47.9435 182.642 48.2991 182.148 48.5576C181.653 48.813 181.021 48.9407 180.252 48.9407H177.537V47.8546H180.213C180.743 47.8546 181.17 47.7771 181.493 47.6219C181.819 47.4668 182.055 47.247 182.201 46.9625C182.35 46.6749 182.424 46.3322 182.424 45.9347C182.424 45.5371 182.35 45.1896 182.201 44.8923C182.052 44.5949 181.815 44.3654 181.488 44.2038C181.162 44.039 180.73 43.9565 180.194 43.9565H178.08V52.8194H176.877ZM181.551 48.3589L183.995 52.8194H182.598L180.194 48.3589H181.551Z" fill="#026AA1"/>
<path d="M185.61 52.8194V42.8899H191.603V43.9565H186.813V47.3116H191.293V48.3783H186.813V51.7527H191.681V52.8194H185.61Z" fill="#026AA1"/>
<path d="M199.2 45.3723C199.142 44.881 198.906 44.4996 198.493 44.2281C198.079 43.9565 197.571 43.8208 196.97 43.8208C196.531 43.8208 196.146 43.8919 195.816 44.0341C195.49 44.1763 195.234 44.3719 195.05 44.6208C194.869 44.8697 194.779 45.1525 194.779 45.4692C194.779 45.7343 194.842 45.9622 194.968 46.1529C195.097 46.3403 195.262 46.4971 195.462 46.6231C195.663 46.746 195.873 46.8478 196.093 46.9286C196.312 47.0062 196.514 47.0692 196.699 47.1177L197.707 47.3892C197.966 47.4571 198.253 47.5508 198.57 47.6704C198.89 47.79 199.196 47.9532 199.486 48.1601C199.781 48.3637 200.023 48.6255 200.214 48.9455C200.404 49.2655 200.5 49.6582 200.5 50.1237C200.5 50.6602 200.359 51.1451 200.078 51.5782C199.8 52.0113 199.393 52.3555 198.856 52.6109C198.323 52.8662 197.675 52.9939 196.912 52.9939C196.201 52.9939 195.585 52.8792 195.065 52.6497C194.548 52.4202 194.14 52.1002 193.843 51.6897C193.549 51.2792 193.382 50.8024 193.344 50.2594H194.585C194.617 50.6344 194.743 50.9447 194.963 51.1903C195.186 51.4327 195.467 51.6137 195.807 51.7333C196.149 51.8497 196.518 51.9079 196.912 51.9079C197.371 51.9079 197.783 51.8335 198.148 51.6848C198.514 51.5329 198.803 51.3228 199.016 51.0546C199.23 50.783 199.336 50.4663 199.336 50.1043C199.336 49.7746 199.244 49.5063 199.06 49.2994C198.876 49.0926 198.633 48.9245 198.333 48.7952C198.032 48.6659 197.707 48.5528 197.358 48.4558L196.136 48.1067C195.361 47.8837 194.746 47.5653 194.294 47.1516C193.841 46.7379 193.615 46.1965 193.615 45.5274C193.615 44.9715 193.765 44.4866 194.066 44.0729C194.37 43.6559 194.777 43.3327 195.288 43.1032C195.802 42.8705 196.375 42.7542 197.009 42.7542C197.649 42.7542 198.218 42.8689 198.716 43.0984C199.213 43.3246 199.608 43.6349 199.899 44.0293C200.193 44.4236 200.348 44.8713 200.364 45.3723H199.2Z" fill="#026AA1"/>
<defs>
<linearGradient id="paint0_linear_236_11039" x1="52.5532" y1="3.6598" x2="44.7136" y2="12.7415" gradientUnits="userSpaceOnUse">
<stop stop-color="#24B1E6"/>
<stop offset="1" stop-color="#026AA1"/>
</linearGradient>
<radialGradient id="paint1_radial_236_11039" cx="0" cy="0" r="1" gradientUnits="userSpaceOnUse" gradientTransform="translate(48.0771 30.891) scale(3.1425 3.1425)">
<stop stop-color="#24B1E6"/>
<stop offset="0.04" stop-color="#1EA5DA"/>
<stop offset="0.12" stop-color="#148FC5"/>
<stop offset="0.22" stop-color="#0C7EB5"/>
<stop offset="0.34" stop-color="#0673A9"/>
<stop offset="0.52" stop-color="#036CA3"/>
<stop offset="1" stop-color="#026AA1"/>
</radialGradient>
<radialGradient id="paint2_radial_236_11039" cx="0" cy="0" r="1" gradientUnits="userSpaceOnUse" gradientTransform="translate(52.239 27.9826) rotate(16.2202) scale(10.0982 12.6158)">
<stop stop-color="#214192"/>
<stop offset="0.16" stop-color="#4963A6"/>
<stop offset="0.58" stop-color="#AAB6D5"/>
<stop offset="0.86" stop-color="#E7EBF3"/>
<stop offset="1" stop-color="white"/>
</radialGradient>
<linearGradient id="paint3_linear_236_11039" x1="47.7728" y1="2.25865" x2="33.2699" y2="20.1647" gradientUnits="userSpaceOnUse">
<stop stop-color="#24B1E6"/>
<stop offset="1" stop-color="#026AA1"/>
</linearGradient>
</defs>
</svg>
