<svg width="154" height="41" viewBox="0 0 154 41" fill="none" xmlns="http://www.w3.org/2000/svg">
<path d="M87.1358 13.8037C87.1358 9.13454 87.2126 4.78736 87.443 0.762207L75.6903 3.0968V4.22384L76.8425 4.38485C77.6875 4.46535 78.2252 4.78736 78.5325 5.27038C78.8397 5.83391 79.0702 6.63894 79.2238 7.84648C79.3774 10.1811 79.5311 15.4943 79.4542 23.8666C79.4542 32.1584 79.3774 37.3911 79.2238 39.4037C83.4486 40.3698 86.7517 40.7723 89.2098 40.7723C93.8187 40.7723 97.4291 39.4037 100.041 36.5861C102.653 33.849 104.035 29.9849 104.035 25.2352C104.035 21.4515 103.037 18.3119 101.039 15.8163C99.0422 13.3207 96.5073 12.1132 93.5115 12.1132C91.5143 12.1132 89.4403 12.6767 87.1358 13.8037ZM87.3662 38.5987C87.2126 36.0226 87.059 28.2943 87.059 15.6553C87.7503 15.4138 88.6721 15.2528 89.8243 15.2528C91.6679 15.2528 93.1274 16.2188 94.2028 18.2314C95.2782 20.244 95.8159 22.6591 95.8159 25.7182C95.8159 29.5018 95.2014 32.561 93.9724 35.1371C92.7433 37.6327 91.207 38.9207 89.2866 38.9207C88.6721 38.7597 88.0576 38.6792 87.3662 38.5987ZM31.5982 1.56724H0.87207V3.1773L2.48519 3.33831C3.71424 3.57982 4.55921 4.06284 5.09692 4.78736C5.63463 5.5924 5.94189 6.88045 6.0187 8.65152C6.63323 17.3459 6.63323 25.4767 6.0187 32.9635C5.86507 34.7345 5.55781 36.0226 5.09692 36.8276C4.55921 37.6327 3.71424 38.1157 2.48519 38.2767L0.87207 38.5182V40.1283H20.6904V38.5182L18.6164 38.3572C17.3874 38.1962 16.5424 37.6327 16.0047 36.9081C15.467 36.1031 15.1597 34.815 15.0829 33.044C14.8525 29.8238 14.6988 26.1207 14.6988 22.015L18.8469 22.0955C21.0745 22.176 22.6108 23.9471 23.379 27.4893H24.9153V14.3672H23.379C22.6108 17.8289 21.1513 19.5999 18.8469 19.6804L14.6988 19.761C14.6988 12.5157 14.8525 7.36347 15.0829 4.22384H21.1513C25.453 4.22384 28.372 7.12196 30.0619 12.9182L31.9055 12.3547L31.5982 1.56724ZM27.9879 26.3622C27.9879 30.5484 29.1401 34.01 31.3678 36.7471C33.5954 39.4842 36.8985 40.7723 41.0465 40.7723C45.1946 40.7723 48.5744 39.4037 51.0325 36.5861C53.4906 33.849 54.6429 30.3874 54.6429 26.2012C54.6429 22.015 53.4906 18.5534 51.263 15.8163C49.0353 13.0792 45.7323 11.7911 41.5842 11.7911C37.4362 11.7911 34.0563 13.1597 31.5982 15.9773C29.1401 18.7144 27.9879 22.176 27.9879 26.3622ZM45.1178 17.1849C46.0395 19.5194 46.4236 22.5786 46.4236 26.2817C46.4236 34.815 44.7337 39.0012 41.4306 39.0012C39.7407 39.0012 38.4348 37.7937 37.513 35.3786C36.5912 32.9635 36.2072 29.9043 36.2072 26.2817C36.2072 17.8289 37.8971 13.6427 41.2002 13.6427C42.8901 13.5622 44.196 14.7698 45.1178 17.1849ZM110.027 36.7471C112.562 39.4037 115.788 40.7723 119.629 40.7723C122.01 40.7723 124.084 40.2893 125.928 39.2427C127.771 38.2767 129.231 37.0691 130.229 35.6201L129.461 34.654C127.771 36.0226 125.851 36.6666 123.623 36.6666C120.55 36.6666 118.169 35.6201 116.556 33.4465C114.866 31.2729 114.098 28.5358 114.252 24.9937H130.69C130.69 21.1295 129.768 17.9899 127.848 15.4943C125.928 13.0792 123.239 11.8716 119.782 11.8716C115.481 11.8716 112.178 13.3207 109.796 16.1383C107.415 18.9559 106.263 22.4176 106.263 26.5232C106.263 30.7094 107.492 34.0905 110.027 36.7471ZM115.711 16.5408C116.556 14.6087 117.632 13.6427 119.091 13.6427C121.395 13.6427 122.548 16.7018 122.548 22.9006L114.405 23.0616C114.482 20.6465 114.866 18.4729 115.711 16.5408ZM151.353 13.3207C149.279 12.3547 146.668 11.7911 143.518 11.7911C140.292 11.7911 137.757 12.6767 135.837 14.3672C133.916 16.0578 132.918 18.1509 132.918 20.6465C132.918 22.8201 133.532 24.5106 134.685 25.7182C135.837 26.9257 137.68 27.9723 140.062 28.8578C142.212 29.6628 143.749 30.4679 144.517 31.1924C145.285 31.9974 145.746 32.883 145.746 34.0905C145.746 35.2176 145.362 36.2641 144.517 37.0691C143.749 37.9547 142.673 38.3572 141.291 38.3572C137.911 38.3572 135.376 35.7811 133.609 30.6289L132.303 31.0314L132.611 39.0817C135.376 40.2088 138.448 40.7723 141.828 40.7723C145.362 40.7723 148.05 39.9672 150.048 38.2767C152.045 36.6666 153.043 34.332 153.043 31.4339C153.043 29.5018 152.583 27.8918 151.584 26.6842C150.585 25.4767 148.972 24.4301 146.668 23.4641C144.133 22.4981 142.366 21.6125 141.444 20.8075C140.523 20.0025 140.062 19.0364 140.062 17.8289C140.062 16.6213 140.369 15.6553 141.06 14.8503C141.752 14.0452 142.597 13.7232 143.672 13.7232C146.745 13.7232 148.972 16.0578 150.355 20.6465L151.661 20.244L151.353 13.3207ZM77.457 12.5962C76.3816 12.0326 75.2294 11.7911 73.9235 11.7911C72.6177 11.7911 71.3118 12.3547 69.8523 13.4817C68.3928 14.6087 67.3174 16.1383 66.4724 18.2314L66.5493 11.7911L54.8733 14.2062V15.3333L56.0255 15.4138C57.485 15.5748 58.33 16.7823 58.4836 18.9559C58.9445 23.9471 58.9445 29.2603 58.4836 34.8955C58.33 37.0691 57.485 38.1962 56.0255 38.4377L54.8733 38.5987V40.1283H71.1582V38.5987L69.0842 38.4377C67.6247 38.2767 66.7797 37.0691 66.6261 34.8955C66.1652 30.2264 66.0884 25.2352 66.4724 20.083C66.9333 19.2779 67.9319 18.7949 69.4682 18.6339C71.0046 18.4729 72.7713 18.9559 74.6149 20.083L77.457 12.5962Z" fill="#DFF3F9"/>
</svg>
