<svg width="154" height="32" viewBox="0 0 154 32" fill="none" xmlns="http://www.w3.org/2000/svg">
<path d="M10.2101 30.6305H4.42692V15.544H0.487305V10.6322H4.42676V7.13706C4.42676 2.99533 6.16919 0.0249023 11.9367 0.0249023C13.1566 0.0249023 15.0716 0.282195 15.0716 0.282195V4.84311H13.0602C11.0106 4.84311 10.2104 5.4955 10.2104 7.29911V10.6322H14.9949L14.5689 15.544H10.2102L10.2101 30.6305ZM23.4797 10.2397C23.3955 10.2397 23.3088 10.2429 23.223 10.2451C17.8605 10.2451 15.407 14.4662 15.407 20.4581C15.407 28.0063 18.5895 31.0274 23.2649 31.0274C25.9398 31.0274 27.6973 29.8491 28.7655 27.6504V30.6326H34.2661V10.6343H28.7655V13.7097C27.8933 11.7311 26.0867 10.2631 23.4797 10.2397ZM24.8784 14.9652C27.1307 14.9652 28.4825 16.6092 28.4825 19.4055L28.4877 22.2616C28.4877 24.1463 27.3712 26.3513 24.8784 26.3513C21.0461 26.3513 21.1484 22.021 21.1484 20.5787C21.1484 15.7273 23.1903 14.9652 24.8784 14.9652ZM36.4876 20.6345C36.4876 18.2043 36.3765 10.2527 46.2764 10.2527C50.2503 10.2527 51.9097 11.575 51.9097 11.575L50.576 15.9038C50.576 15.9038 48.9188 14.9488 46.7593 14.9488C43.9935 14.9488 42.2287 16.6267 42.2287 19.5788L42.2318 21.6956C42.2318 24.5322 43.9346 26.4258 46.765 26.4258C48.7323 26.4258 50.5455 25.4618 50.5455 25.4618L51.8758 29.7003C51.8758 29.7003 50.3585 31.0309 46.3041 31.0309C36.8779 31.0309 36.4877 23.8967 36.4877 20.6345H36.4876ZM84.1619 10.2451C89.5246 10.2451 92.0168 14.4662 92.0168 20.4581C92.0168 28.0063 88.8341 31.0274 84.1587 31.0274C81.4838 31.0274 79.5064 29.8493 78.4382 27.6504V30.6326L73.0067 30.6303V0.63296L78.7735 0.106651V13.4388C79.6058 11.1063 82.3411 10.2451 84.1621 10.2451H84.1619ZM82.5452 14.9652C80.2929 14.9652 78.7735 16.6092 78.7735 19.4055L78.7681 22.2616C78.7648 24.1463 79.8204 26.3513 82.5452 26.3513C86.3775 26.3513 86.2752 22.021 86.2752 20.5787C86.2752 15.7273 84.2335 14.9652 82.5452 14.9652ZM61.9156 10.2617C55.8332 10.2617 52.6222 13.7319 52.6222 19.8989V21.0447C52.6222 29.0488 57.1315 31.1096 62.5075 31.1096C67.733 31.1096 70.0982 29.5801 70.0982 29.5801L69.0191 25.5071C69.0191 25.5071 66.2369 26.7459 63.1989 26.7459C60.0496 26.7459 58.6951 25.9059 58.348 22.7387H70.5592V19.4712C70.5592 12.7816 66.9554 10.2615 61.9154 10.2615L61.9156 10.2617ZM62.0621 14.3401C64.1675 14.3401 65.5318 15.6912 65.4569 18.8244H58.3586C58.4816 15.5267 59.9529 14.3403 62.0621 14.3403V14.3401ZM103.515 10.2342C97.2694 10.2342 93.9811 13.9176 93.9811 20.5184C93.9811 29.575 99.6493 31.0328 103.526 31.0328C109.201 31.0328 112.976 27.8356 112.976 20.6006C112.976 13.0702 108.731 10.2342 103.515 10.2342ZM103.437 14.9816C106.183 14.9816 107.272 17.1326 107.272 19.5811V21.6861C107.272 24.6522 105.749 26.3678 103.426 26.3678C101.254 26.3678 99.7279 24.763 99.7279 21.6861V19.5811C99.7279 16.2995 101.544 14.9816 103.437 14.9816ZM124.465 10.2342C118.219 10.2342 114.93 13.9176 114.93 20.5184C114.93 29.575 120.599 31.0328 124.475 31.0328C130.15 31.0328 133.926 27.8356 133.926 20.6006C133.926 13.0702 129.68 10.2342 124.465 10.2342ZM124.386 14.9816C127.133 14.9816 128.221 17.1326 128.221 19.5811V21.6861C128.221 24.6522 126.698 26.3678 124.376 26.3678C122.204 26.3678 120.677 24.763 120.677 21.6861V19.5811C120.677 16.2995 122.494 14.9816 124.386 14.9816ZM136.105 30.6305V0.63296L141.888 0.106651V20.2129L147.626 10.6322H153.734L147.749 20.555L153.965 30.6305H147.84L141.888 20.8473V30.6305H136.105Z" fill="#DFF3F9"/>
</svg>
