<svg width="155" height="45" viewBox="0 0 155 45" fill="none" xmlns="http://www.w3.org/2000/svg">
<path d="M30.2828 19.2818H17.362C17.0287 19.2818 16.7581 19.5729 16.7581 19.9311V26.7213C16.7581 27.0795 17.0287 27.371 17.362 27.371H22.4024V35.8071C22.4024 35.8071 21.2706 36.2218 18.1416 36.2218C14.45 36.2218 9.29304 34.7719 9.29304 22.5834C9.29304 10.3921 14.6629 8.78806 19.7043 8.78806C24.0683 8.78806 25.9483 9.61398 27.1445 10.0118C27.5203 10.1357 27.868 9.7334 27.868 9.37481L29.3094 2.81422C29.3094 2.64663 29.2566 2.44462 29.0786 2.30731C28.5929 1.93496 25.6291 0.152344 18.1416 0.152344C9.51588 0.152344 0.667969 4.09682 0.667969 23.0586C0.667969 42.0211 10.7982 44.8468 19.3345 44.8468C26.4026 44.8468 30.6903 41.6003 30.6903 41.6003C30.8671 41.4953 30.8863 41.23 30.8863 41.1081V19.9311C30.8863 19.5729 30.6161 19.2818 30.2828 19.2818ZM96.8359 2.52584C96.8359 2.1645 96.5696 1.87302 96.2363 1.87302H88.961C88.6287 1.87302 88.3585 2.1645 88.3585 2.52584C88.3585 2.52756 88.3604 17.6378 88.3604 17.6378H77.0203V2.52584C77.0203 2.1645 76.7526 1.87302 76.42 1.87302H69.145C68.814 1.87302 68.5441 2.1645 68.5441 2.52584V43.4445C68.5441 43.8055 68.814 44.0994 69.145 44.0994H76.42C76.7526 44.0994 77.0203 43.8055 77.0203 43.4445V25.9421H88.3604C88.3604 25.9421 88.3405 43.4431 88.3405 43.4445C88.3405 43.8055 88.6104 44.0994 88.9431 44.0994H96.2356C96.5689 44.0994 96.8353 43.8055 96.8359 43.4445V2.52584ZM43.988 7.99655C43.988 5.18084 41.8877 2.90542 39.2965 2.90542C36.7079 2.90542 34.606 5.18084 34.606 7.99655C34.606 10.8092 36.7079 13.0908 39.2965 13.0908C41.8877 13.0908 43.988 10.8092 43.988 7.99655ZM43.4107 34.8342V15.9461C43.4107 15.5875 43.1414 15.2943 42.8088 15.2943H35.5566C35.224 15.2943 34.9262 15.6632 34.9262 16.0218V43.0828C34.9262 43.8781 35.3872 44.1145 35.984 44.1145H42.5181C43.2349 44.1145 43.4107 43.7363 43.4107 43.0701V34.8342ZM124.641 15.2943H117.422C117.091 15.2943 116.821 15.5875 116.821 15.9485V36.0122C116.821 36.0122 114.987 37.4545 112.384 37.4545C109.781 37.4545 109.09 36.185 109.09 33.4453V15.9485C109.09 15.5875 108.821 15.2943 108.49 15.2943H101.163C100.832 15.2943 100.561 15.5875 100.561 15.9485V34.7702C100.561 42.9076 104.781 44.8984 110.585 44.8984C115.347 44.8984 119.187 42.0707 119.187 42.0707C119.187 42.0707 119.37 43.5608 119.452 43.7377C119.535 43.9139 119.751 44.0918 119.983 44.0918L124.645 44.0698C124.975 44.0698 125.246 43.7759 125.246 43.4166L125.244 15.9485C125.244 15.5875 124.974 15.2943 124.641 15.2943ZM141.275 37.47C138.771 37.3881 137.073 36.1667 137.073 36.1667V23.2087C137.073 23.2087 138.748 22.1047 140.804 21.9072C143.404 21.657 145.909 22.5011 145.909 29.167C145.909 36.1963 144.779 37.5835 141.275 37.47ZM144.123 14.4153C140.022 14.4153 137.233 16.3817 137.233 16.3817V2.52584C137.233 2.1645 136.965 1.87302 136.633 1.87302H129.337C129.006 1.87302 128.736 2.1645 128.736 2.52584V43.4445C128.736 43.8055 129.006 44.0994 129.338 44.0994H134.4C134.628 44.0994 134.801 43.9731 134.928 43.7518C135.054 43.5319 135.236 41.8652 135.236 41.8652C135.236 41.8652 138.219 44.904 143.866 44.904C150.496 44.904 154.299 41.2892 154.299 28.6763C154.299 16.0634 148.226 14.4153 144.123 14.4153ZM64.3495 15.2241H58.8922C58.8922 15.2241 58.8839 7.47656 58.8839 7.47484C58.8839 7.18164 58.7433 7.03504 58.428 7.03504H50.9911C50.702 7.03504 50.5467 7.17166 50.5467 7.47037V15.4784C50.5467 15.4784 46.8199 16.4454 46.5679 16.5235C46.3169 16.6016 46.1322 16.8504 46.1322 17.1471V22.1794C46.1322 22.5414 46.4011 22.8332 46.7338 22.8332H50.5467V34.9392C50.5467 43.9311 56.4147 44.8145 60.3746 44.8145C62.1839 44.8145 64.3482 44.1899 64.7056 44.0481C64.9217 43.9627 65.0472 43.7222 65.0472 43.4613L65.0533 37.9256C65.0533 37.5646 64.7696 37.2724 64.4501 37.2724C64.1321 37.2724 63.3186 37.4115 62.481 37.4115C59.8005 37.4115 58.8922 36.0717 58.8922 34.3376C58.8922 32.6049 58.8919 22.8332 58.8919 22.8332H64.3495C64.6822 22.8332 64.9514 22.5414 64.9514 22.1794V15.8762C64.9514 15.5152 64.6822 15.2241 64.3495 15.2241Z" fill="#DFF3F9"/>
</svg>
