<svg width="200" height="170" viewBox="0 0 200 170" fill="none" xmlns="http://www.w3.org/2000/svg">
<g filter="url(#filter0_i_582_5137)">
<circle cx="169.804" cy="37.4692" r="6.66667" fill="url(#paint0_linear_582_5137)"/>
</g>
<g filter="url(#filter1_i_582_5137)">
<circle cx="190.589" cy="142.175" r="9.41177" fill="url(#paint1_linear_582_5137)"/>
</g>
<g filter="url(#filter2_i_582_5137)">
<circle cx="21.9612" cy="8.05742" r="7.05882" fill="url(#paint2_linear_582_5137)"/>
</g>
<g filter="url(#filter3_i_582_5137)">
<circle cx="25.0983" cy="74.7241" r="3.92157" fill="url(#paint3_linear_582_5137)"/>
</g>
<g filter="url(#filter4_i_582_5137)">
<circle cx="6.27451" cy="132.763" r="6.27451" fill="url(#paint4_linear_582_5137)"/>
</g>
<g filter="url(#filter5_i_582_5137)">
<path fill-rule="evenodd" clip-rule="evenodd" d="M152.469 38.2081C152.742 38.4812 152.922 38.8336 152.983 39.2149C153.736 48.1213 152.968 57.0909 150.711 65.7395L125.176 39.9293C133.747 37.6961 142.637 36.9404 151.462 37.6945C151.844 37.7553 152.196 37.9351 152.469 38.2081ZM87.3485 64.6405L62.619 104.171C62.3979 104.523 62.3029 104.939 62.3495 105.352C62.3961 105.764 62.5815 106.149 62.8755 106.442L84.2344 127.801C84.404 127.974 84.6064 128.112 84.8296 128.207C85.0529 128.301 85.2926 128.35 85.535 128.351C85.8807 128.353 86.219 128.251 86.5058 128.058L126.165 103.218C137.344 94.8477 145.564 83.1308 149.63 69.7696L121.145 41.0468C107.651 45.1041 95.8083 53.3715 87.3485 64.6405Z" fill="url(#paint5_linear_582_5137)"/>
</g>
<g filter="url(#filter6_bdiii_582_5137)">
<path d="Mnan nanL66.2097 121.647L57.0506 130.806C56.8789 130.976 56.7427 131.178 56.6497 131.402C56.5567 131.625 56.5088 131.864 56.5088 132.106C56.5088 132.348 56.5567 132.587 56.6497 132.811C56.7427 133.034 56.8789 133.236 57.0506 133.407C57.2218 133.577 57.4248 133.711 57.648 133.802C57.8712 133.893 58.1101 133.939 58.3512 133.938C58.8318 133.936 59.2923 133.745 59.6335 133.407L68.7926 124.248C68.9642 124.077 69.1005 123.875 69.1935 123.652C69.2865 123.428 69.3344 123.189 69.3344 122.947C69.3344 122.705 69.2865 122.466 69.1935 122.243C69.1005 122.019 68.9642 121.817 68.7926 121.647C68.4493 121.305 67.9851 121.114 67.5011 121.114C67.0172 121.114 66.5529 121.305 66.2097 121.647Lnan nanZ" fill="url(#paint6_linear_582_5137)" fill-opacity="0.21"/>
<path d="Mnan nanL66.2097 121.647L57.0506 130.806C56.8789 130.976 56.7427 131.178 56.6497 131.402C56.5567 131.625 56.5088 131.864 56.5088 132.106C56.5088 132.348 56.5567 132.587 56.6497 132.811C56.7427 133.034 56.8789 133.236 57.0506 133.407C57.2218 133.577 57.4248 133.711 57.648 133.802C57.8712 133.893 58.1101 133.939 58.3512 133.938C58.8318 133.936 59.2923 133.745 59.6335 133.407L68.7926 124.248C68.9642 124.077 69.1005 123.875 69.1935 123.652C69.2865 123.428 69.3344 123.189 69.3344 122.947C69.3344 122.705 69.2865 122.466 69.1935 122.243C69.1005 122.019 68.9642 121.817 68.7926 121.647C68.4493 121.305 67.9851 121.114 67.5011 121.114C67.0172 121.114 66.5529 121.305 66.2097 121.647Lnan nanZ" fill="#06689D" fill-opacity="0.1"/>
</g>
<g filter="url(#filter7_bdii_582_5137)">
<path fill-rule="evenodd" clip-rule="evenodd" d="M65.5624 105.02C65.5765 105.006 65.5787 104.984 65.5676 104.967C65.5572 104.952 65.5584 104.931 65.5709 104.917C65.7312 104.736 65.9258 104.589 66.1436 104.483C66.3708 104.373 66.6184 104.312 66.8707 104.302C67.1229 104.292 67.3745 104.335 67.6096 104.427C67.8446 104.519 68.0581 104.659 68.2366 104.837C68.4152 105.016 68.5549 105.229 68.647 105.464C68.739 105.699 68.7816 105.951 68.7718 106.203C68.7621 106.455 68.7003 106.703 68.5903 106.93C68.4804 107.157 68.3246 107.36 68.1329 107.524L64.0479 111.609C63.7234 111.97 63.2688 112.187 62.784 112.213C62.4217 112.212 62.068 112.103 61.7676 111.9C61.4672 111.698 61.2336 111.411 61.0964 111.075C60.9591 110.74 60.9244 110.372 60.9965 110.017C61.0687 109.662 61.2445 109.336 61.5017 109.081L65.5624 105.02ZM45.9496 141.559L58.5525 128.901C58.8974 128.549 59.3681 128.348 59.8611 128.343C60.3541 128.338 60.8289 128.528 61.1811 128.873C61.5333 129.218 61.7341 129.689 61.7393 130.182C61.7444 130.675 61.5535 131.15 61.2086 131.502L48.5325 144.16C48.1875 144.502 47.7206 144.694 47.2346 144.692C46.7485 144.69 46.283 144.496 45.9404 144.151C45.5979 143.806 45.4065 143.339 45.4082 142.853C45.4099 142.367 45.6047 141.901 45.9496 141.559ZM73.009 115.67C73.0201 115.687 73.0179 115.709 73.0037 115.723L68.9431 119.784C68.6859 120.039 68.5101 120.365 68.4379 120.72C68.3658 121.075 68.4005 121.443 68.5378 121.779C68.675 122.114 68.9086 122.401 69.209 122.603C69.5094 122.806 69.8631 122.915 70.2254 122.916C70.7101 122.89 71.1647 122.673 71.4893 122.312L75.5742 118.227C75.766 118.063 75.9217 117.861 76.0317 117.633C76.1416 117.406 76.2034 117.159 76.2132 116.906C76.2229 116.654 76.1804 116.402 76.0883 116.167C75.9962 115.932 75.8565 115.719 75.678 115.54C75.4995 115.362 75.286 115.222 75.0509 115.13C74.8159 115.038 74.5643 114.995 74.312 115.005C74.0597 115.015 73.8122 115.077 73.5849 115.187C73.3672 115.292 73.1726 115.439 73.0122 115.62C72.9998 115.634 72.9986 115.655 73.009 115.67ZM82.7088 122.165C82.7223 122.152 82.7437 122.149 82.7598 122.16C82.7756 122.171 82.7967 122.169 82.8105 122.155C83.153 121.827 83.6098 121.644 84.0849 121.646C84.571 121.648 85.0365 121.842 85.379 122.187C85.7215 122.532 85.913 122.999 85.9113 123.485C85.9096 123.971 85.7148 124.437 85.3699 124.779L81.2849 128.864C80.9437 129.203 80.4832 129.394 80.0027 129.396C79.7616 129.397 79.5226 129.351 79.2994 129.26C79.0762 129.168 78.8732 129.034 78.7021 128.864C78.5304 128.694 78.3941 128.491 78.3011 128.268C78.2081 128.045 78.1602 127.806 78.1602 127.564C78.1602 127.322 78.2081 127.083 78.3011 126.859C78.3941 126.636 78.5304 126.433 78.7021 126.263L82.7088 122.165ZM70.7339 134.158L63.2051 141.669C63.0334 141.839 62.8972 142.042 62.8042 142.265C62.7112 142.488 62.6633 142.727 62.6633 142.969C62.6633 143.211 62.7112 143.451 62.8042 143.674C62.8972 143.897 63.0334 144.1 63.2051 144.27C63.3763 144.44 63.5793 144.574 63.8025 144.665C64.0257 144.756 64.2646 144.803 64.5057 144.801C64.7468 144.803 64.9858 144.756 65.209 144.665C65.4321 144.574 65.6351 144.44 65.8063 144.27L73.3167 136.741C73.6168 136.391 73.7736 135.94 73.7558 135.479C73.738 135.018 73.5469 134.581 73.2207 134.254C72.8944 133.928 72.4571 133.737 71.9961 133.719C71.5351 133.701 71.0843 133.858 70.7339 134.158ZM43.577 126.183L51.1058 118.673C51.4562 118.373 51.9069 118.216 52.368 118.234C52.829 118.251 53.2663 118.442 53.5926 118.769C53.9188 119.095 54.1099 119.532 54.1277 119.993C54.1455 120.454 53.9887 120.905 53.6886 121.256L46.1782 128.784C46.007 128.954 45.804 129.088 45.5808 129.18C45.3576 129.271 45.1187 129.317 44.8776 129.316C44.6365 129.317 44.3975 129.271 44.1743 129.18C43.9512 129.088 43.7482 128.954 43.577 128.784C43.4053 128.614 43.269 128.411 43.176 128.188C43.083 127.965 43.0352 127.726 43.0352 127.484C43.0352 127.242 43.083 127.002 43.176 126.779C43.269 126.556 43.4053 126.353 43.577 126.183Z" fill="url(#paint7_linear_582_5137)" fill-opacity="0.1"/>
</g>
<g filter="url(#filter8_i_582_5137)">
<path fill-rule="evenodd" clip-rule="evenodd" d="M152.468 38.2082C152.741 38.4813 152.921 38.8336 152.982 39.2149C153.735 48.1213 152.967 57.091 150.71 65.7396L125.175 39.9294C133.746 37.6962 142.636 36.9404 151.461 37.6945C151.843 37.7554 152.195 37.9351 152.468 38.2082ZM87.3475 64.6406L62.618 104.171C62.3969 104.523 62.3019 104.939 62.3485 105.352C62.3951 105.764 62.5806 106.149 62.8745 106.443L84.2334 127.801C84.4031 127.975 84.6054 128.112 84.8286 128.207C85.0519 128.301 85.2916 128.35 85.534 128.351C85.8797 128.353 86.218 128.251 86.5049 128.058L126.164 103.219C137.343 94.8478 145.563 83.1308 149.629 69.7696L121.144 41.0468C107.65 45.1041 95.8074 53.3716 87.3475 64.6406Z" fill="url(#paint8_linear_582_5137)"/>
</g>
<g filter="url(#filter9_biii_582_5137)">
<path d="M95.2536 120.373C93.703 121.652 93.1005 123.73 93.5002 125.7C95.195 134.053 93.9426 142.775 89.8951 150.354C89.6747 150.711 89.584 151.134 89.6383 151.551C89.6925 151.968 89.8884 152.353 90.1931 152.642C90.3883 152.823 90.6205 152.959 90.8736 153.041C91.1267 153.123 91.3946 153.149 91.6587 153.117C91.9632 153.079 92.2533 152.965 92.5023 152.785C102.772 145.42 123.593 127.758 122.83 106.205C122.702 102.585 118.5 101.198 115.705 103.503L95.2536 120.373Z" fill="url(#paint9_linear_582_5137)" fill-opacity="0.09"/>
<path d="M95.2536 120.373C93.703 121.652 93.1005 123.73 93.5002 125.7C95.195 134.053 93.9426 142.775 89.8951 150.354C89.6747 150.711 89.584 151.134 89.6383 151.551C89.6925 151.968 89.8884 152.353 90.1931 152.642C90.3883 152.823 90.6205 152.959 90.8736 153.041C91.1267 153.123 91.3946 153.149 91.6587 153.117C91.9632 153.079 92.2533 152.965 92.5023 152.785C102.772 145.42 123.593 127.758 122.83 106.205C122.702 102.585 118.5 101.198 115.705 103.503L95.2536 120.373Z" fill="#06689D" fill-opacity="0.05"/>
</g>
<g filter="url(#filter10_biii_582_5137)">
<path d="M71.1354 97.3382C69.821 98.859 67.7297 99.4135 65.7695 98.9686C57.4578 97.082 48.7088 98.1334 41.0392 102.006C40.6764 102.218 40.2518 102.299 39.8364 102.235C39.4211 102.171 39.0403 101.966 38.7579 101.655C38.5817 101.456 38.4511 101.22 38.375 100.965C38.299 100.71 38.2794 100.442 38.3176 100.179C38.3627 99.8752 38.4833 99.5879 38.6684 99.3431C46.2679 89.2457 64.4046 68.8359 85.9338 70.0948C89.5505 70.3062 90.8398 74.5395 88.4708 77.2806L71.1354 97.3382Z" fill="url(#paint10_linear_582_5137)" fill-opacity="0.09"/>
<path d="M71.1354 97.3382C69.821 98.859 67.7297 99.4135 65.7695 98.9686C57.4578 97.082 48.7088 98.1334 41.0392 102.006C40.6764 102.218 40.2518 102.299 39.8364 102.235C39.4211 102.171 39.0403 101.966 38.7579 101.655C38.5817 101.456 38.4511 101.22 38.375 100.965C38.299 100.71 38.2794 100.442 38.3176 100.179C38.3627 99.8752 38.4833 99.5879 38.6684 99.3431C46.2679 89.2457 64.4046 68.8359 85.9338 70.0948C89.5505 70.3062 90.8398 74.5395 88.4708 77.2806L71.1354 97.3382Z" fill="#06689D" fill-opacity="0.05"/>
</g>
<g filter="url(#filter11_bdiii_582_5137)">
<path d="Mnan nanL66.2087 121.647L57.0497 130.806C56.878 130.976 56.7417 131.179 56.6487 131.402C56.5557 131.625 56.5078 131.864 56.5078 132.106C56.5078 132.348 56.5557 132.587 56.6487 132.811C56.7417 133.034 56.878 133.237 57.0497 133.407C57.2208 133.577 57.4238 133.711 57.647 133.802C57.8702 133.893 58.1092 133.939 58.3502 133.938C58.8308 133.936 59.2913 133.745 59.6325 133.407L68.7916 124.248C68.9633 124.077 69.0995 123.875 69.1925 123.652C69.2855 123.428 69.3334 123.189 69.3334 122.947C69.3334 122.705 69.2855 122.466 69.1925 122.243C69.0995 122.019 68.9633 121.817 68.7916 121.647C68.4484 121.305 67.9841 121.114 67.5002 121.114C67.0162 121.114 66.5519 121.305 66.2087 121.647Lnan nanZ" fill="url(#paint11_linear_582_5137)" fill-opacity="0.21"/>
<path d="Mnan nanL66.2087 121.647L57.0497 130.806C56.878 130.976 56.7417 131.179 56.6487 131.402C56.5557 131.625 56.5078 131.864 56.5078 132.106C56.5078 132.348 56.5557 132.587 56.6487 132.811C56.7417 133.034 56.878 133.237 57.0497 133.407C57.2208 133.577 57.4238 133.711 57.647 133.802C57.8702 133.893 58.1092 133.939 58.3502 133.938C58.8308 133.936 59.2913 133.745 59.6325 133.407L68.7916 124.248C68.9633 124.077 69.0995 123.875 69.1925 123.652C69.2855 123.428 69.3334 123.189 69.3334 122.947C69.3334 122.705 69.2855 122.466 69.1925 122.243C69.0995 122.019 68.9633 121.817 68.7916 121.647C68.4484 121.305 67.9841 121.114 67.5002 121.114C67.0162 121.114 66.5519 121.305 66.2087 121.647Lnan nanZ" fill="#06689D" fill-opacity="0.1"/>
</g>
<g filter="url(#filter12_bdii_582_5137)">
<path fill-rule="evenodd" clip-rule="evenodd" d="M65.5624 105.02C65.5765 105.006 65.5787 104.984 65.5676 104.967C65.5572 104.952 65.5584 104.931 65.5709 104.917C65.7312 104.736 65.9258 104.589 66.1436 104.484C66.3708 104.374 66.6184 104.312 66.8707 104.302C67.1229 104.292 67.3745 104.335 67.6096 104.427C67.8446 104.519 68.0581 104.659 68.2366 104.837C68.4152 105.016 68.5549 105.229 68.647 105.464C68.739 105.699 68.7816 105.951 68.7718 106.203C68.7621 106.455 68.7003 106.703 68.5903 106.93C68.4804 107.158 68.3246 107.36 68.1329 107.524L64.0479 111.609C63.7234 111.97 63.2688 112.187 62.784 112.213C62.4217 112.212 62.068 112.103 61.7676 111.9C61.4672 111.698 61.2336 111.411 61.0964 111.075C60.9591 110.74 60.9244 110.372 60.9965 110.017C61.0687 109.662 61.2445 109.336 61.5017 109.081L65.5624 105.02ZM45.9496 141.559L58.5525 128.901C58.8974 128.549 59.3681 128.348 59.8611 128.343C60.3541 128.338 60.8289 128.529 61.1811 128.873C61.5333 129.218 61.7341 129.689 61.7393 130.182C61.7444 130.675 61.5535 131.15 61.2086 131.502L48.5325 144.16C48.1875 144.502 47.7206 144.694 47.2346 144.692C46.7485 144.69 46.283 144.496 45.9404 144.151C45.5979 143.806 45.4065 143.339 45.4082 142.853C45.4099 142.367 45.6047 141.901 45.9496 141.559ZM73.009 115.671C73.0201 115.687 73.0179 115.709 73.0037 115.723L68.9431 119.784C68.6859 120.039 68.5101 120.365 68.4379 120.72C68.3658 121.075 68.4005 121.443 68.5378 121.779C68.675 122.114 68.9086 122.401 69.209 122.603C69.5094 122.806 69.8631 122.915 70.2254 122.916C70.7101 122.89 71.1647 122.673 71.4893 122.312L75.5742 118.227C75.766 118.063 75.9217 117.861 76.0317 117.633C76.1416 117.406 76.2034 117.159 76.2132 116.906C76.2229 116.654 76.1804 116.403 76.0883 116.167C75.9962 115.932 75.8565 115.719 75.678 115.54C75.4995 115.362 75.286 115.222 75.0509 115.13C74.8159 115.038 74.5643 114.995 74.312 115.005C74.0597 115.015 73.8122 115.077 73.5849 115.187C73.3672 115.292 73.1726 115.439 73.0122 115.62C72.9998 115.634 72.9986 115.655 73.009 115.671ZM82.7088 122.165C82.7223 122.152 82.7437 122.149 82.7598 122.16C82.7756 122.171 82.7967 122.169 82.8105 122.155C83.153 121.827 83.6098 121.644 84.0849 121.646C84.571 121.648 85.0365 121.843 85.379 122.187C85.7215 122.532 85.913 122.999 85.9113 123.485C85.9096 123.971 85.7148 124.437 85.3699 124.779L81.2849 128.864C80.9437 129.203 80.4832 129.394 80.0027 129.396C79.7616 129.397 79.5226 129.351 79.2994 129.26C79.0762 129.169 78.8732 129.034 78.7021 128.864C78.5304 128.694 78.3941 128.492 78.3011 128.268C78.2081 128.045 78.1602 127.806 78.1602 127.564C78.1602 127.322 78.2081 127.083 78.3011 126.859C78.3941 126.636 78.5304 126.434 78.7021 126.263L82.7088 122.165ZM70.7339 134.158L63.2051 141.669C63.0334 141.839 62.8972 142.042 62.8042 142.265C62.7112 142.488 62.6633 142.728 62.6633 142.969C62.6633 143.211 62.7112 143.451 62.8042 143.674C62.8972 143.897 63.0334 144.1 63.2051 144.27C63.3763 144.44 63.5793 144.574 63.8025 144.665C64.0257 144.756 64.2646 144.803 64.5057 144.801C64.7468 144.803 64.9858 144.756 65.209 144.665C65.4321 144.574 65.6351 144.44 65.8063 144.27L73.3167 136.741C73.6168 136.391 73.7736 135.94 73.7558 135.479C73.738 135.018 73.5469 134.581 73.2207 134.254C72.8944 133.928 72.4571 133.737 71.9961 133.719C71.5351 133.701 71.0843 133.858 70.7339 134.158ZM43.577 126.183L51.1058 118.673C51.4562 118.373 51.9069 118.216 52.368 118.234C52.829 118.251 53.2663 118.443 53.5926 118.769C53.9188 119.095 54.1099 119.532 54.1277 119.993C54.1455 120.454 53.9887 120.905 53.6886 121.256L46.1782 128.784C46.007 128.954 45.804 129.088 45.5808 129.18C45.3576 129.271 45.1187 129.317 44.8776 129.316C44.6365 129.317 44.3975 129.271 44.1743 129.18C43.9512 129.088 43.7482 128.954 43.577 128.784C43.4053 128.614 43.269 128.411 43.176 128.188C43.083 127.965 43.0352 127.726 43.0352 127.484C43.0352 127.242 43.083 127.003 43.176 126.779C43.269 126.556 43.4053 126.353 43.577 126.183Z" fill="url(#paint12_linear_582_5137)" fill-opacity="0.1"/>
</g>
<circle cx="118.672" cy="70.1568" r="13.836" fill="white"/>
<defs>
<filter id="filter0_i_582_5137" x="163.138" y="27.8026" width="22.333" height="16.3333" filterUnits="userSpaceOnUse" color-interpolation-filters="sRGB">
<feFlood flood-opacity="0" result="BackgroundImageFix"/>
<feBlend mode="normal" in="SourceGraphic" in2="BackgroundImageFix" result="shape"/>
<feColorMatrix in="SourceAlpha" type="matrix" values="0 0 0 0 0 0 0 0 0 0 0 0 0 0 0 0 0 0 127 0" result="hardAlpha"/>
<feOffset dx="9" dy="-3"/>
<feGaussianBlur stdDeviation="10"/>
<feComposite in2="hardAlpha" operator="arithmetic" k2="-1" k3="1"/>
<feColorMatrix type="matrix" values="0 0 0 0 0 0 0 0 0 0 0 0 0 0 0 0 0 0 0.17 0"/>
<feBlend mode="normal" in2="shape" result="effect1_innerShadow_582_5137"/>
</filter>
<filter id="filter1_i_582_5137" x="181.177" y="129.763" width="27.8232" height="21.8235" filterUnits="userSpaceOnUse" color-interpolation-filters="sRGB">
<feFlood flood-opacity="0" result="BackgroundImageFix"/>
<feBlend mode="normal" in="SourceGraphic" in2="BackgroundImageFix" result="shape"/>
<feColorMatrix in="SourceAlpha" type="matrix" values="0 0 0 0 0 0 0 0 0 0 0 0 0 0 0 0 0 0 127 0" result="hardAlpha"/>
<feOffset dx="9" dy="-3"/>
<feGaussianBlur stdDeviation="10"/>
<feComposite in2="hardAlpha" operator="arithmetic" k2="-1" k3="1"/>
<feColorMatrix type="matrix" values="0 0 0 0 0 0 0 0 0 0 0 0 0 0 0 0 0 0 0.17 0"/>
<feBlend mode="normal" in2="shape" result="effect1_innerShadow_582_5137"/>
</filter>
<filter id="filter2_i_582_5137" x="14.9023" y="-2.0014" width="23.1172" height="17.1177" filterUnits="userSpaceOnUse" color-interpolation-filters="sRGB">
<feFlood flood-opacity="0" result="BackgroundImageFix"/>
<feBlend mode="normal" in="SourceGraphic" in2="BackgroundImageFix" result="shape"/>
<feColorMatrix in="SourceAlpha" type="matrix" values="0 0 0 0 0 0 0 0 0 0 0 0 0 0 0 0 0 0 127 0" result="hardAlpha"/>
<feOffset dx="9" dy="-3"/>
<feGaussianBlur stdDeviation="10"/>
<feComposite in2="hardAlpha" operator="arithmetic" k2="-1" k3="1"/>
<feColorMatrix type="matrix" values="0 0 0 0 0 0 0 0 0 0 0 0 0 0 0 0 0 0 0.17 0"/>
<feBlend mode="normal" in2="shape" result="effect1_innerShadow_582_5137"/>
</filter>
<filter id="filter3_i_582_5137" x="21.1768" y="67.8025" width="16.8428" height="10.8431" filterUnits="userSpaceOnUse" color-interpolation-filters="sRGB">
<feFlood flood-opacity="0" result="BackgroundImageFix"/>
<feBlend mode="normal" in="SourceGraphic" in2="BackgroundImageFix" result="shape"/>
<feColorMatrix in="SourceAlpha" type="matrix" values="0 0 0 0 0 0 0 0 0 0 0 0 0 0 0 0 0 0 127 0" result="hardAlpha"/>
<feOffset dx="9" dy="-3"/>
<feGaussianBlur stdDeviation="10"/>
<feComposite in2="hardAlpha" operator="arithmetic" k2="-1" k3="1"/>
<feColorMatrix type="matrix" values="0 0 0 0 0 0 0 0 0 0 0 0 0 0 0 0 0 0 0.17 0"/>
<feBlend mode="normal" in2="shape" result="effect1_innerShadow_582_5137"/>
</filter>
<filter id="filter4_i_582_5137" x="0" y="123.489" width="21.5488" height="15.549" filterUnits="userSpaceOnUse" color-interpolation-filters="sRGB">
<feFlood flood-opacity="0" result="BackgroundImageFix"/>
<feBlend mode="normal" in="SourceGraphic" in2="BackgroundImageFix" result="shape"/>
<feColorMatrix in="SourceAlpha" type="matrix" values="0 0 0 0 0 0 0 0 0 0 0 0 0 0 0 0 0 0 127 0" result="hardAlpha"/>
<feOffset dx="9" dy="-3"/>
<feGaussianBlur stdDeviation="10"/>
<feComposite in2="hardAlpha" operator="arithmetic" k2="-1" k3="1"/>
<feColorMatrix type="matrix" values="0 0 0 0 0 0 0 0 0 0 0 0 0 0 0 0 0 0 0.17 0"/>
<feBlend mode="normal" in2="shape" result="effect1_innerShadow_582_5137"/>
</filter>
<filter id="filter5_i_582_5137" x="62.3379" y="34.4115" width="99.9248" height="93.9395" filterUnits="userSpaceOnUse" color-interpolation-filters="sRGB">
<feFlood flood-opacity="0" result="BackgroundImageFix"/>
<feBlend mode="normal" in="SourceGraphic" in2="BackgroundImageFix" result="shape"/>
<feColorMatrix in="SourceAlpha" type="matrix" values="0 0 0 0 0 0 0 0 0 0 0 0 0 0 0 0 0 0 127 0" result="hardAlpha"/>
<feOffset dx="9" dy="-3"/>
<feGaussianBlur stdDeviation="10"/>
<feComposite in2="hardAlpha" operator="arithmetic" k2="-1" k3="1"/>
<feColorMatrix type="matrix" values="0 0 0 0 0 0 0 0 0 0 0 0 0 0 0 0 0 0 0.17 0"/>
<feBlend mode="normal" in2="shape" result="effect1_innerShadow_582_5137"/>
</filter>
<filter id="filter6_bdiii_582_5137" x="36.5088" y="101.114" width="61.8252" height="57.8242" filterUnits="userSpaceOnUse" color-interpolation-filters="sRGB">
<feFlood flood-opacity="0" result="BackgroundImageFix"/>
<feGaussianBlur in="BackgroundImage" stdDeviation="10"/>
<feComposite in2="SourceAlpha" operator="in" result="effect1_backgroundBlur_582_5137"/>
<feColorMatrix in="SourceAlpha" type="matrix" values="0 0 0 0 0 0 0 0 0 0 0 0 0 0 0 0 0 0 127 0" result="hardAlpha"/>
<feOffset dx="9" dy="5"/>
<feGaussianBlur stdDeviation="10"/>
<feColorMatrix type="matrix" values="0 0 0 0 0.0690278 0 0 0 0 0.295833 0 0 0 0 0.11166 0 0 0 0.08 0"/>
<feBlend mode="normal" in2="effect1_backgroundBlur_582_5137" result="effect2_dropShadow_582_5137"/>
<feBlend mode="normal" in="SourceGraphic" in2="effect2_dropShadow_582_5137" result="shape"/>
<feColorMatrix in="SourceAlpha" type="matrix" values="0 0 0 0 0 0 0 0 0 0 0 0 0 0 0 0 0 0 127 0" result="hardAlpha"/>
<feOffset dx="-10" dy="10"/>
<feGaussianBlur stdDeviation="5"/>
<feComposite in2="hardAlpha" operator="arithmetic" k2="-1" k3="1"/>
<feColorMatrix type="matrix" values="0 0 0 0 1 0 0 0 0 1 0 0 0 0 1 0 0 0 0.15 0"/>
<feBlend mode="normal" in2="shape" result="effect3_innerShadow_582_5137"/>
<feColorMatrix in="SourceAlpha" type="matrix" values="0 0 0 0 0 0 0 0 0 0 0 0 0 0 0 0 0 0 127 0" result="hardAlpha"/>
<feOffset dy="-10"/>
<feGaussianBlur stdDeviation="5"/>
<feComposite in2="hardAlpha" operator="arithmetic" k2="-1" k3="1"/>
<feColorMatrix type="matrix" values="0 0 0 0 0.156863 0 0 0 0 0.67451 0 0 0 0 0.25098 0 0 0 0.3 0"/>
<feBlend mode="normal" in2="effect3_innerShadow_582_5137" result="effect4_innerShadow_582_5137"/>
<feColorMatrix in="SourceAlpha" type="matrix" values="0 0 0 0 0 0 0 0 0 0 0 0 0 0 0 0 0 0 127 0" result="hardAlpha"/>
<feOffset dx="-3" dy="6"/>
<feGaussianBlur stdDeviation="7.5"/>
<feComposite in2="hardAlpha" operator="arithmetic" k2="-1" k3="1"/>
<feColorMatrix type="matrix" values="0 0 0 0 0.0770313 0 0 0 0 0.6375 0 0 0 0 0.178935 0 0 0 0.09 0"/>
<feBlend mode="normal" in2="effect4_innerShadow_582_5137" result="effect5_innerShadow_582_5137"/>
</filter>
<filter id="filter7_bdii_582_5137" x="23.0352" y="84.3006" width="91.876" height="85.5005" filterUnits="userSpaceOnUse" color-interpolation-filters="sRGB">
<feFlood flood-opacity="0" result="BackgroundImageFix"/>
<feGaussianBlur in="BackgroundImage" stdDeviation="10"/>
<feComposite in2="SourceAlpha" operator="in" result="effect1_backgroundBlur_582_5137"/>
<feColorMatrix in="SourceAlpha" type="matrix" values="0 0 0 0 0 0 0 0 0 0 0 0 0 0 0 0 0 0 127 0" result="hardAlpha"/>
<feOffset dx="9" dy="5"/>
<feGaussianBlur stdDeviation="10"/>
<feColorMatrix type="matrix" values="0 0 0 0 0.0690278 0 0 0 0 0.295833 0 0 0 0 0.11166 0 0 0 0.08 0"/>
<feBlend mode="normal" in2="effect1_backgroundBlur_582_5137" result="effect2_dropShadow_582_5137"/>
<feBlend mode="normal" in="SourceGraphic" in2="effect2_dropShadow_582_5137" result="shape"/>
<feColorMatrix in="SourceAlpha" type="matrix" values="0 0 0 0 0 0 0 0 0 0 0 0 0 0 0 0 0 0 127 0" result="hardAlpha"/>
<feOffset/>
<feGaussianBlur stdDeviation="5"/>
<feComposite in2="hardAlpha" operator="arithmetic" k2="-1" k3="1"/>
<feColorMatrix type="matrix" values="0 0 0 0 0.156863 0 0 0 0 0.67451 0 0 0 0 0.25098 0 0 0 0.2 0"/>
<feBlend mode="normal" in2="shape" result="effect3_innerShadow_582_5137"/>
<feColorMatrix in="SourceAlpha" type="matrix" values="0 0 0 0 0 0 0 0 0 0 0 0 0 0 0 0 0 0 127 0" result="hardAlpha"/>
<feOffset dx="-3" dy="6"/>
<feGaussianBlur stdDeviation="7.5"/>
<feComposite in2="hardAlpha" operator="arithmetic" k2="-1" k3="1"/>
<feColorMatrix type="matrix" values="0 0 0 0 0.0770313 0 0 0 0 0.6375 0 0 0 0 0.178935 0 0 0 0.09 0"/>
<feBlend mode="normal" in2="effect3_innerShadow_582_5137" result="effect4_innerShadow_582_5137"/>
</filter>
<filter id="filter8_i_582_5137" x="62.3369" y="34.4116" width="99.9248" height="93.9395" filterUnits="userSpaceOnUse" color-interpolation-filters="sRGB">
<feFlood flood-opacity="0" result="BackgroundImageFix"/>
<feBlend mode="normal" in="SourceGraphic" in2="BackgroundImageFix" result="shape"/>
<feColorMatrix in="SourceAlpha" type="matrix" values="0 0 0 0 0 0 0 0 0 0 0 0 0 0 0 0 0 0 127 0" result="hardAlpha"/>
<feOffset dx="9" dy="-3"/>
<feGaussianBlur stdDeviation="10"/>
<feComposite in2="hardAlpha" operator="arithmetic" k2="-1" k3="1"/>
<feColorMatrix type="matrix" values="0 0 0 0 0 0 0 0 0 0 0 0 0 0 0 0 0 0 0.17 0"/>
<feBlend mode="normal" in2="shape" result="effect1_innerShadow_582_5137"/>
</filter>
<filter id="filter9_biii_582_5137" x="69.623" y="82.3748" width="73.2275" height="90.7553" filterUnits="userSpaceOnUse" color-interpolation-filters="sRGB">
<feFlood flood-opacity="0" result="BackgroundImageFix"/>
<feGaussianBlur in="BackgroundImage" stdDeviation="10"/>
<feComposite in2="SourceAlpha" operator="in" result="effect1_backgroundBlur_582_5137"/>
<feBlend mode="normal" in="SourceGraphic" in2="effect1_backgroundBlur_582_5137" result="shape"/>
<feColorMatrix in="SourceAlpha" type="matrix" values="0 0 0 0 0 0 0 0 0 0 0 0 0 0 0 0 0 0 127 0" result="hardAlpha"/>
<feOffset dx="-10" dy="10"/>
<feGaussianBlur stdDeviation="5"/>
<feComposite in2="hardAlpha" operator="arithmetic" k2="-1" k3="1"/>
<feColorMatrix type="matrix" values="0 0 0 0 1 0 0 0 0 1 0 0 0 0 1 0 0 0 0.15 0"/>
<feBlend mode="normal" in2="shape" result="effect2_innerShadow_582_5137"/>
<feColorMatrix in="SourceAlpha" type="matrix" values="0 0 0 0 0 0 0 0 0 0 0 0 0 0 0 0 0 0 127 0" result="hardAlpha"/>
<feOffset dy="-10"/>
<feGaussianBlur stdDeviation="5"/>
<feComposite in2="hardAlpha" operator="arithmetic" k2="-1" k3="1"/>
<feColorMatrix type="matrix" values="0 0 0 0 0.356863 0 0 0 0 0.760784 0 0 0 0 0.976471 0 0 0 0.05 0"/>
<feBlend mode="normal" in2="effect2_innerShadow_582_5137" result="effect3_innerShadow_582_5137"/>
<feColorMatrix in="SourceAlpha" type="matrix" values="0 0 0 0 0 0 0 0 0 0 0 0 0 0 0 0 0 0 127 0" result="hardAlpha"/>
<feOffset dx="-3" dy="6"/>
<feGaussianBlur stdDeviation="7.5"/>
<feComposite in2="hardAlpha" operator="arithmetic" k2="-1" k3="1"/>
<feColorMatrix type="matrix" values="0 0 0 0 0.356863 0 0 0 0 0.760784 0 0 0 0 0.976471 0 0 0 0.2 0"/>
<feBlend mode="normal" in2="effect3_innerShadow_582_5137" result="effect4_innerShadow_582_5137"/>
</filter>
<filter id="filter10_biii_582_5137" x="18.2988" y="50.0391" width="91.3721" height="72.2169" filterUnits="userSpaceOnUse" color-interpolation-filters="sRGB">
<feFlood flood-opacity="0" result="BackgroundImageFix"/>
<feGaussianBlur in="BackgroundImage" stdDeviation="10"/>
<feComposite in2="SourceAlpha" operator="in" result="effect1_backgroundBlur_582_5137"/>
<feBlend mode="normal" in="SourceGraphic" in2="effect1_backgroundBlur_582_5137" result="shape"/>
<feColorMatrix in="SourceAlpha" type="matrix" values="0 0 0 0 0 0 0 0 0 0 0 0 0 0 0 0 0 0 127 0" result="hardAlpha"/>
<feOffset dx="-10" dy="10"/>
<feGaussianBlur stdDeviation="5"/>
<feComposite in2="hardAlpha" operator="arithmetic" k2="-1" k3="1"/>
<feColorMatrix type="matrix" values="0 0 0 0 1 0 0 0 0 1 0 0 0 0 1 0 0 0 0.15 0"/>
<feBlend mode="normal" in2="shape" result="effect2_innerShadow_582_5137"/>
<feColorMatrix in="SourceAlpha" type="matrix" values="0 0 0 0 0 0 0 0 0 0 0 0 0 0 0 0 0 0 127 0" result="hardAlpha"/>
<feOffset dy="-10"/>
<feGaussianBlur stdDeviation="5"/>
<feComposite in2="hardAlpha" operator="arithmetic" k2="-1" k3="1"/>
<feColorMatrix type="matrix" values="0 0 0 0 0.356863 0 0 0 0 0.760784 0 0 0 0 0.976471 0 0 0 0.05 0"/>
<feBlend mode="normal" in2="effect2_innerShadow_582_5137" result="effect3_innerShadow_582_5137"/>
<feColorMatrix in="SourceAlpha" type="matrix" values="0 0 0 0 0 0 0 0 0 0 0 0 0 0 0 0 0 0 127 0" result="hardAlpha"/>
<feOffset dx="-3" dy="6"/>
<feGaussianBlur stdDeviation="7.5"/>
<feComposite in2="hardAlpha" operator="arithmetic" k2="-1" k3="1"/>
<feColorMatrix type="matrix" values="0 0 0 0 0.356863 0 0 0 0 0.760784 0 0 0 0 0.976471 0 0 0 0.2 0"/>
<feBlend mode="normal" in2="effect3_innerShadow_582_5137" result="effect4_innerShadow_582_5137"/>
</filter>
<filter id="filter11_bdiii_582_5137" x="36.5078" y="101.114" width="61.8252" height="57.8242" filterUnits="userSpaceOnUse" color-interpolation-filters="sRGB">
<feFlood flood-opacity="0" result="BackgroundImageFix"/>
<feGaussianBlur in="BackgroundImage" stdDeviation="10"/>
<feComposite in2="SourceAlpha" operator="in" result="effect1_backgroundBlur_582_5137"/>
<feColorMatrix in="SourceAlpha" type="matrix" values="0 0 0 0 0 0 0 0 0 0 0 0 0 0 0 0 0 0 127 0" result="hardAlpha"/>
<feOffset dx="9" dy="5"/>
<feGaussianBlur stdDeviation="10"/>
<feColorMatrix type="matrix" values="0 0 0 0 0.0690278 0 0 0 0 0.295833 0 0 0 0 0.11166 0 0 0 0.08 0"/>
<feBlend mode="normal" in2="effect1_backgroundBlur_582_5137" result="effect2_dropShadow_582_5137"/>
<feBlend mode="normal" in="SourceGraphic" in2="effect2_dropShadow_582_5137" result="shape"/>
<feColorMatrix in="SourceAlpha" type="matrix" values="0 0 0 0 0 0 0 0 0 0 0 0 0 0 0 0 0 0 127 0" result="hardAlpha"/>
<feOffset dx="-10" dy="10"/>
<feGaussianBlur stdDeviation="5"/>
<feComposite in2="hardAlpha" operator="arithmetic" k2="-1" k3="1"/>
<feColorMatrix type="matrix" values="0 0 0 0 1 0 0 0 0 1 0 0 0 0 1 0 0 0 0.15 0"/>
<feBlend mode="normal" in2="shape" result="effect3_innerShadow_582_5137"/>
<feColorMatrix in="SourceAlpha" type="matrix" values="0 0 0 0 0 0 0 0 0 0 0 0 0 0 0 0 0 0 127 0" result="hardAlpha"/>
<feOffset dy="-10"/>
<feGaussianBlur stdDeviation="5"/>
<feComposite in2="hardAlpha" operator="arithmetic" k2="-1" k3="1"/>
<feColorMatrix type="matrix" values="0 0 0 0 0.156863 0 0 0 0 0.67451 0 0 0 0 0.25098 0 0 0 0.3 0"/>
<feBlend mode="normal" in2="effect3_innerShadow_582_5137" result="effect4_innerShadow_582_5137"/>
<feColorMatrix in="SourceAlpha" type="matrix" values="0 0 0 0 0 0 0 0 0 0 0 0 0 0 0 0 0 0 127 0" result="hardAlpha"/>
<feOffset dx="-3" dy="6"/>
<feGaussianBlur stdDeviation="7.5"/>
<feComposite in2="hardAlpha" operator="arithmetic" k2="-1" k3="1"/>
<feColorMatrix type="matrix" values="0 0 0 0 0.0770313 0 0 0 0 0.6375 0 0 0 0 0.178935 0 0 0 0.09 0"/>
<feBlend mode="normal" in2="effect4_innerShadow_582_5137" result="effect5_innerShadow_582_5137"/>
</filter>
<filter id="filter12_bdii_582_5137" x="23.0352" y="84.3007" width="91.876" height="85.5005" filterUnits="userSpaceOnUse" color-interpolation-filters="sRGB">
<feFlood flood-opacity="0" result="BackgroundImageFix"/>
<feGaussianBlur in="BackgroundImage" stdDeviation="10"/>
<feComposite in2="SourceAlpha" operator="in" result="effect1_backgroundBlur_582_5137"/>
<feColorMatrix in="SourceAlpha" type="matrix" values="0 0 0 0 0 0 0 0 0 0 0 0 0 0 0 0 0 0 127 0" result="hardAlpha"/>
<feOffset dx="9" dy="5"/>
<feGaussianBlur stdDeviation="10"/>
<feColorMatrix type="matrix" values="0 0 0 0 0.356863 0 0 0 0 0.760784 0 0 0 0 0.976471 0 0 0 0.08 0"/>
<feBlend mode="normal" in2="effect1_backgroundBlur_582_5137" result="effect2_dropShadow_582_5137"/>
<feBlend mode="normal" in="SourceGraphic" in2="effect2_dropShadow_582_5137" result="shape"/>
<feColorMatrix in="SourceAlpha" type="matrix" values="0 0 0 0 0 0 0 0 0 0 0 0 0 0 0 0 0 0 127 0" result="hardAlpha"/>
<feOffset/>
<feGaussianBlur stdDeviation="5"/>
<feComposite in2="hardAlpha" operator="arithmetic" k2="-1" k3="1"/>
<feColorMatrix type="matrix" values="0 0 0 0 0.356863 0 0 0 0 0.760784 0 0 0 0 0.976471 0 0 0 0.2 0"/>
<feBlend mode="normal" in2="shape" result="effect3_innerShadow_582_5137"/>
<feColorMatrix in="SourceAlpha" type="matrix" values="0 0 0 0 0 0 0 0 0 0 0 0 0 0 0 0 0 0 127 0" result="hardAlpha"/>
<feOffset dx="-3" dy="6"/>
<feGaussianBlur stdDeviation="7.5"/>
<feComposite in2="hardAlpha" operator="arithmetic" k2="-1" k3="1"/>
<feColorMatrix type="matrix" values="0 0 0 0 0.356863 0 0 0 0 0.760784 0 0 0 0 0.976471 0 0 0 0.09 0"/>
<feBlend mode="normal" in2="effect3_innerShadow_582_5137" result="effect4_innerShadow_582_5137"/>
</filter>
<linearGradient id="paint0_linear_582_5137" x1="174.999" y1="30.8026" x2="171.686" y2="45.6956" gradientUnits="userSpaceOnUse">
<stop stop-color="#5BC2F9"/>
<stop offset="1" stop-color="#06689D"/>
</linearGradient>
<linearGradient id="paint1_linear_582_5137" x1="197.922" y1="132.763" x2="193.245" y2="153.789" gradientUnits="userSpaceOnUse">
<stop stop-color="#5BC2F9"/>
<stop offset="1" stop-color="#06689D"/>
</linearGradient>
<linearGradient id="paint2_linear_582_5137" x1="27.4615" y1="0.998596" x2="23.9539" y2="16.7677" gradientUnits="userSpaceOnUse">
<stop stop-color="#5BC2F9"/>
<stop offset="1" stop-color="#06689D"/>
</linearGradient>
<linearGradient id="paint3_linear_582_5137" x1="28.1541" y1="70.8025" x2="26.2054" y2="79.5631" gradientUnits="userSpaceOnUse">
<stop stop-color="#5BC2F9"/>
<stop offset="1" stop-color="#06689D"/>
</linearGradient>
<linearGradient id="paint4_linear_582_5137" x1="11.1637" y1="126.489" x2="8.0458" y2="140.506" gradientUnits="userSpaceOnUse">
<stop stop-color="#5BC2F9"/>
<stop offset="1" stop-color="#06689D"/>
</linearGradient>
<linearGradient id="paint5_linear_582_5137" x1="143.226" y1="37.4115" x2="120.628" y2="138.987" gradientUnits="userSpaceOnUse">
<stop stop-color="#5BC2F9"/>
<stop offset="1" stop-color="#06689D"/>
</linearGradient>
<linearGradient id="paint6_linear_582_5137" x1="67.9186" y1="121.114" x2="64.7326" y2="135.438" gradientUnits="userSpaceOnUse">
<stop stop-color="#5BC2F9"/>
<stop offset="1" stop-color="#06689D"/>
</linearGradient>
<linearGradient id="paint7_linear_582_5137" x1="52.9044" y1="118.232" x2="50.153" y2="130.613" gradientUnits="userSpaceOnUse">
<stop stop-color="#5BC2F9"/>
<stop offset="1" stop-color="#06689D"/>
</linearGradient>
<linearGradient id="paint8_linear_582_5137" x1="143.225" y1="37.4116" x2="120.627" y2="138.987" gradientUnits="userSpaceOnUse">
<stop stop-color="#5BC2F9"/>
<stop offset="1" stop-color="#06689D"/>
</linearGradient>
<linearGradient id="paint9_linear_582_5137" x1="117.72" y1="99.1085" x2="109.271" y2="155.029" gradientUnits="userSpaceOnUse">
<stop stop-color="#5BC2F9"/>
<stop offset="1" stop-color="#06689D"/>
</linearGradient>
<linearGradient id="paint10_linear_582_5137" x1="92.911" y1="75.3674" x2="36.811" y2="82.5273" gradientUnits="userSpaceOnUse">
<stop stop-color="#5BC2F9"/>
<stop offset="1" stop-color="#06689D"/>
</linearGradient>
<linearGradient id="paint11_linear_582_5137" x1="67.9176" y1="121.114" x2="64.7316" y2="135.438" gradientUnits="userSpaceOnUse">
<stop stop-color="#5BC2F9"/>
<stop offset="1" stop-color="#06689D"/>
</linearGradient>
<linearGradient id="paint12_linear_582_5137" x1="52.9044" y1="118.232" x2="50.153" y2="130.613" gradientUnits="userSpaceOnUse">
<stop stop-color="#5BC2F9"/>
<stop offset="1" stop-color="#06689D"/>
</linearGradient>
</defs>
</svg>
