<svg width="60" height="60" viewBox="0 0 60 60" fill="none" xmlns="http://www.w3.org/2000/svg">
<mask id="mask0_246_201" style="mask-type:alpha" maskUnits="userSpaceOnUse" x="0" y="0" width="60" height="60">
<path fill-rule="evenodd" clip-rule="evenodd" d="M29.9998 59.1432C46.3959 59.1432 59.6876 45.9036 59.6876 29.5716C59.6876 13.2397 46.3959 0 29.9998 0C13.6037 0 0.312012 13.2397 0.312012 29.5716C0.312012 45.9036 13.6037 59.1432 29.9998 59.1432ZM45.5463 29.5329C45.5463 38.0518 38.6404 44.9577 30.1215 44.9577C21.6026 44.9577 14.6967 38.0518 14.6967 29.5329C14.6967 21.014 21.6026 14.1081 30.1215 14.1081C38.6404 14.1081 45.5463 21.014 45.5463 29.5329Z" fill="#D9D9D9"/>
</mask>
<g mask="url(#mask0_246_201)">
<path d="M29.9998 59.1432C46.3959 59.1432 59.6876 45.9036 59.6876 29.5716C59.6876 13.2397 46.3959 0 29.9998 0C13.6037 0 0.312012 13.2397 0.312012 29.5716C0.312012 45.9036 13.6037 59.1432 29.9998 59.1432Z" fill="url(#paint0_linear_246_201)"/>
<path d="M43.9697 28.7942C44.1827 29.1123 46.8771 32.9768 51.8066 32.9851L43.9697 28.7942Z" fill="url(#paint1_radial_246_201)"/>
<path style="mix-blend-mode:multiply" d="M57.3556 20.0832C54.5201 19.5299 51.3223 30.9768 47.0014 30.5065C46.047 30.4014 45.325 29.7458 44.8603 29.2036C44.9414 29.8663 44.9544 30.5355 44.899 31.2009C44.769 32.7887 44.3706 33.1732 44.5892 33.8786C44.852 34.7085 45.7233 35.1152 47.3306 35.815C48.6307 36.3683 49.6459 36.8192 51.1342 36.9907C53.9005 37.3116 56.6668 36.5204 58.0499 35.2673C58.6032 34.7749 59.2201 33.9423 59.3943 33.2783C59.4618 33.0046 59.5154 32.7276 59.5548 32.4485C59.5548 32.3821 59.5908 32.1718 59.6156 31.7071C59.6461 31.1926 59.6461 30.7998 59.6461 30.7085C59.6461 30.1552 59.6461 28.5923 59.6322 28.1303C59.6156 27.7707 59.339 20.4621 57.3556 20.0832Z" fill="url(#paint2_radial_246_201)"/>
<path d="M44.8709 30.0944C47.6676 33.3447 51.64 34.5923 54.6442 33.3365C58.1214 31.8897 59.0039 27.3032 59.0702 26.974C59.1916 26.3173 59.2435 25.6498 59.2252 24.9823C59.1449 19.6046 56.0439 15.1204 54.6414 13.1177C53.1288 10.9706 51.356 9.01933 49.3633 7.30845C47.5431 5.76763 42.42 1.5435 34.4254 0.392728C29.1668 -0.32648 23.8116 0.399338 18.9342 2.49234C13.6792 4.63446 9.16152 8.26013 5.93261 12.9268C4.0373 15.6309 2.59904 18.6279 1.67529 21.7983" fill="url(#paint3_linear_246_201)"/>
</g>
<defs>
<linearGradient id="paint0_linear_246_201" x1="52.3652" y1="3.6598" x2="44.5256" y2="12.7415" gradientUnits="userSpaceOnUse">
<stop stop-color="#24B1E6"/>
<stop offset="1" stop-color="#026AA1"/>
</linearGradient>
<radialGradient id="paint1_radial_246_201" cx="0" cy="0" r="1" gradientUnits="userSpaceOnUse" gradientTransform="translate(47.8896 30.891) scale(3.1425 3.1425)">
<stop stop-color="#24B1E6"/>
<stop offset="0.04" stop-color="#1EA5DA"/>
<stop offset="0.12" stop-color="#148FC5"/>
<stop offset="0.22" stop-color="#0C7EB5"/>
<stop offset="0.34" stop-color="#0673A9"/>
<stop offset="0.52" stop-color="#036CA3"/>
<stop offset="1" stop-color="#026AA1"/>
</radialGradient>
<radialGradient id="paint2_radial_246_201" cx="0" cy="0" r="1" gradientUnits="userSpaceOnUse" gradientTransform="translate(52.051 27.9826) rotate(16.2202) scale(10.0982 12.6158)">
<stop stop-color="#214192"/>
<stop offset="0.16" stop-color="#4963A6"/>
<stop offset="0.58" stop-color="#AAB6D5"/>
<stop offset="0.86" stop-color="#E7EBF3"/>
<stop offset="1" stop-color="white"/>
</radialGradient>
<linearGradient id="paint3_linear_246_201" x1="47.5848" y1="2.25865" x2="33.0819" y2="20.1647" gradientUnits="userSpaceOnUse">
<stop stop-color="#24B1E6"/>
<stop offset="1" stop-color="#026AA1"/>
</linearGradient>
</defs>
</svg>
